<svg xmlns="http://www.w3.org/2000/svg" width="166.581" height="83.31" viewBox="0 0 166.581 83.31">
  <g id="liberty" transform="translate(0.041)">
    <path id="Caminho_134" data-name="Caminho 134" d="M84.52,26.45a2.14,2.14,0,1,0-2.14-2.14,2.14,2.14,0,0,0,2.14,2.14Z"/>
    <path id="Caminho_135" data-name="Caminho 135" d="M134.75,39.14c0,2.83,1.86,3.92,4.19,3.92a4.11,4.11,0,0,0,3.93-2.19l-.38-.35a2.32,2.32,0,0,1-1.78,1c-1.73,0-2.26-1.18-2.26-3.16V31.28h3.29c1.79,0,2.3.67,3.1,2.3l4.5,9.49c-1.51,4-2.79,5.68-5.11,5.68a4.25,4.25,0,0,1-1.64-.3l-.77,3.7a5.29,5.29,0,0,0,1,.08c2.55,0,3.95-1.07,5.27-4.09L154.3,34c1-2.3,1.43-2.74,3-3.18v-.55h-5.12v.55c1.56.33,1.91,1.31.82,3.92l-1.7,3.95-2.61-5.37c-.74-1.56-.74-2.28.66-2.5v-.55h-10.9V25.54h-.62a22.94,22.94,0,0,1-5.27,5.1v.63h2.19Z"/>
    <path id="Caminho_136" data-name="Caminho 136" d="M122.22,33.25v6.5c0,1.39-.41,1.88-2,2.27v.54H128V42c-1.81-.37-2.08-.83-2.08-2.27v-5c.93-1.31,1.61-1.75,2.72-1.75.84,0,1.7.54,2.77,1.59l.82-3.73a2.91,2.91,0,0,0-2.16-1c-1.54,0-2.88,1.26-4.09,3.92h-.05V29.79h-.58l-5.35.49v.55a2.1,2.1,0,0,1,2.22,2.42Z"/>
    <path id="Caminho_137" data-name="Caminho 137" d="M113,43.06h0a6.9,6.9,0,0,0,6.59-4.28h-.55a5.07,5.07,0,0,1-4.39,2.69,3.79,3.79,0,0,1-1.7-.41c-1.59-.77-2.82-2.72-2.66-5.73h9.3a6.15,6.15,0,0,0-6.45-5.54.47.47,0,0,0-.19,0,6.6,6.6,0,0,0-6.63,6.69A6.45,6.45,0,0,0,113,43.06Zm-.06-12.36H113c1.46,0,2.56,1.64,2.66,3.89h-5.32c.06-2.33,1.08-3.89,2.58-3.89Z"/>
    <path id="Caminho_138" data-name="Caminho 138" d="M80.21,37.63h-.55c-1.53,3.16-2.63,3.88-5,3.88s-3-.5-3-2.07V26.61c0-1.67.52-2.06,2.41-2.55v-.54h-9v.54c2,.49,2.39,1,2.39,2.69V38.92c0,2.06-.2,2.55-2.39,3.11v.54H79.66Z"/>
    <path id="Caminho_139" data-name="Caminho 139" d="M90.63,24.91V42.56a30.31,30.31,0,0,0,6,.5h.93c5.29-.33,7.32-3.33,7.32-6.89s-2.52-6.36-5.83-6.36a6.81,6.81,0,0,0-1.48.19,7.16,7.16,0,0,0-3.26,2V22.17h-.54l-5,.36v.57C89.91,23.3,90.63,23.87,90.63,24.91Zm3.68,8c1.24-1.13,1.9-1.46,2.88-1.46a1.81,1.81,0,0,1,.38,0c2,.22,3.27,2.25,3.27,5.06,0,3.34-1.26,5-3.27,5.51a7.08,7.08,0,0,1-1.3.13c-1.47,0-2-.65-2-2.06Z"/>
    <path id="Caminho_140" data-name="Caminho 140" d="M82.65,33.14v6.53c0,1.57-.38,2-2.05,2.36v.54h7.7V42c-1.37-.17-2-.86-2-2.09V29.85h-.55l-5.34.44v.55C82.21,31.22,82.65,31.63,82.65,33.14Z"/>
    <path id="Caminho_141" data-name="Caminho 141" d="M143.26,61.6v.88c2.32,0,3.42,2.19,3.42,5.48s-1.23,5.52-3.42,5.52h0c-2.15,0-3.47-2.11-3.47-5.31s.89-5.39,3-5.67a2.781,2.781,0,0,1,.44,0v-.9a7.24,7.24,0,0,0-6,2.52,7.24,7.24,0,0,1,6-2.52c-5.61,0-7.37,3.91-7.37,6.36a6.07,6.07,0,0,0,.61,2.63l.11.24h0c1.06,2,3.27,3.51,6.64,3.51h0c4.91,0,7.32-3.29,7.32-6.4C150.58,65.06,148.35,61.6,143.26,61.6Zm-3.42,12.08-.34-.15Zm1.45.44-.44-.1Zm-.76-.19-.38-.12Zm-2.42-1.27-.2-.17Zm1.1.73-.29-.16Zm-.58-.34-.25-.17Zm-1.13-1,.14.16Zm-.34-.4.08.1Zm4.43,2.5.53.07Z"/>
    <path id="Caminho_142" data-name="Caminho 142" d="M154.53,63.79c0-.79.83-1.31,1.92-1.31a4,4,0,0,1,3.64,2.84h.52V61.64h-.52a1.18,1.18,0,0,1-.71.31c-.22,0-.74-.09-1.31-.18a13.539,13.539,0,0,0-1.84-.18c-2.59,0-4.13,1.76-4.13,3.59,0,4.47,7,3.46,7,6.57a2,2,0,0,1-2.1,1.73c-1.71,0-3.12-1.23-4.3-3.73h-.52v4.61h.52a1.52,1.52,0,0,1,1.09-.44,6.45,6.45,0,0,1,1.41.22,10.94,10.94,0,0,0,1.94.22,4.26,4.26,0,0,0,4.24-4.08C161.36,65.42,154.53,66.29,154.53,63.79Z"/>
    <rect id="Ret창ngulo_16" data-name="Ret창ngulo 16" width="15.99" height="1.02" transform="translate(150.55 48.29)"/>
    <path id="Caminho_143" data-name="Caminho 143" d="M129.15,65.37h0V61.6h-.54l-5.17.49v.53a2,2,0,0,1,2.15,2.32v6.22c0,1.32-.4,1.8-2,2.2v.53h7.54v-.53c-1.76-.35-2-.78-2-2.2V66.34c.9-1.28,1.57-1.67,2.62-1.67a4.2,4.2,0,0,1,2.64,1.49l.78-3.55a2.74,2.74,0,0,0-2.05-1C131.6,61.6,130.33,62.78,129.15,65.37Z"/>
    <rect id="Ret창ngulo_17" data-name="Ret창ngulo 17" width="74.53" height="1.02" transform="translate(64.45 48.29)"/>
    <path id="Caminho_144" data-name="Caminho 144" d="M84.61,67H91a5.92,5.92,0,0,0-6.23-5.36H84.6A6.36,6.36,0,0,0,78.25,68a6.16,6.16,0,0,0,6.36,6.27h0A6.78,6.78,0,0,0,91,70.24h-.57a4.92,4.92,0,0,1-4.21,2.58,3.56,3.56,0,0,1-1.62-.4c-1.54-.75-2.73-2.59-2.54-5.47Zm0-4.47h0c1.41,0,2.45,1.57,2.59,3.72H82.06c.09-2.25,1.06-3.77,2.5-3.77Z"/>
    <path id="Caminho_145" data-name="Caminho 145" d="M120.86,71V61.6h-.54l-4.87.49v.53c1.22.21,1.84.78,1.84,1.75v5.88c-1,1.61-1.75,2.14-2.93,2.14a2,2,0,0,1-2.2-2.07V61.6h-.53l-4.82.49v.53c1.4.26,1.83.75,1.83,2.06v6.09c0,2.24,1.45,3.6,3.91,3.6,1.89,0,3.38-.88,4.7-2.9h0v2.9l5.44-.48v-.53C121.16,72.91,120.86,72.56,120.86,71Z"/>
    <path id="Caminho_146" data-name="Caminho 146" d="M68.34,60.55a3,3,0,0,1-.87-1.93,2.73,2.73,0,0,1,2.94-2.46A5.31,5.31,0,0,1,75,59.93h.53V55.11H75a1.35,1.35,0,0,1-1,.48,6.8,6.8,0,0,1-1.54-.22,7.82,7.82,0,0,0-1.88-.26c-3.33,0-5.7,2.2-5.7,5.35a5.28,5.28,0,0,0,1.63,3.86c1.53,1.53,4.68,2.9,6.09,4.3a3.07,3.07,0,0,1,1,2.11c0,1.48-1.4,2.59-3.38,2.59-2.59,0-4.34-1.88-4.86-4.6h-.54v5.52h.54a1,1,0,0,1,.91-.61c1,0,2.23.75,4.42.75S76.54,73,76.54,69a5.67,5.67,0,0,0-2-4.2C73.43,63.66,69.22,61.47,68.34,60.55Z"/>
    <path id="Caminho_147" data-name="Caminho 147" d="M98.29,61.6h-.22c-3.56,0-6,2.15-6,4.87,0,2,1.22,3.29,3.95,4.16h0c-2.76.61-3.82,1.28-3.82,2.64s.52,2.45,4.12,2.8v.09c-3.47.3-5,2-5,3.46,0,2.2,2.75,3.69,6.79,3.69h.22c5-.09,7.57-2.68,7.57-5.35a3.94,3.94,0,0,0-1.09-2.59c-1.53-1.49-4.34-1.75-6.49-2-1.84-.18-3.3-.36-3.3-1.23S96.23,71,98.29,71h.52c3.48,0,5.61-2,5.61-4.29a3.68,3.68,0,0,0-1.57-3l.08-.09,3,.22V61.68H99.77Zm0,15c2.06.14,5.6.74,5.6,2.82,0,1.09-1.27,1.92-3,1.92a15,15,0,0,1-2.58-.25c-2.06-.35-4.17-1.18-4.17-2.72,0-1.1,1.32-1.8,3.29-1.8a7.5,7.5,0,0,1,.86.06Zm2.62-10.38c0,2.76-1.18,3.86-2.62,3.86-1.62,0-2.68-1.45-2.68-3.76,0-2.55.92-3.78,2.68-3.86h.12c1.36.02,2.5,1.2,2.5,3.78Z"/>
    <path id="Caminho_148" data-name="Caminho 148" d="M58.14,32.71c-.18-.25-.63,0-.63,0L50,35.44a24.57,24.57,0,0,0-2-4l2.42-6.61s.31-.64,0-.81-.71.27-.71.27L45.32,27.9a19,19,0,0,0-6-4.37,21.771,21.771,0,0,0-2.71-1l-1.36-5.2s-.09-.54-.46-.54-.44.5-.44.5L33.47,22a23.429,23.429,0,0,0-2.95-.21,21.21,21.21,0,0,0-8.72,1.78,17.09,17.09,0,0,0-3.08,1.76c-.16.1-.32.22-.48.33-.9-2.34-1.6-4.23-1.74-4.79a8.44,8.44,0,0,0,1.81-3.27,5.42,5.42,0,0,0-.12-3.49,10.15,10.15,0,0,1-.79-2.23,1.51,1.51,0,0,1,.44-.91,1,1,0,0,0-.93-.86,4,4,0,0,0-1.1.09c-.07-.2-.27-.16-.13-.75.2-.9,1.92-1.33,3.36-1.88a4.14,4.14,0,0,0,2.84-4A3.32,3.32,0,0,0,20,.37a4.2,4.2,0,0,1-1.69,1.76,3,3,0,0,1-2,.31A2.31,2.31,0,0,0,15.13,0a3.06,3.06,0,0,1-2.71,1.09A33.321,33.321,0,0,0,8.82.7C5.9.7,3.47,2.48,3.18,5.06a5.79,5.79,0,0,0,1,3.82,10.46,10.46,0,0,0-1.39,1.34,1.08,1.08,0,0,0-1.48-.11,2,2,0,0,1,.06,1.24A16.34,16.34,0,0,0,0,15.52,5.2,5.2,0,0,0,2.79,20.8a1.35,1.35,0,0,0-.14,1.35,1,1,0,0,0,1,.51,1.34,1.34,0,0,0-.25,1.47c.25.62.93,1.49,1.56,1.49a11.62,11.62,0,0,0,.32,2.22,2.5,2.5,0,0,0-.39,1.43,1.56,1.56,0,0,0,1.14,1.5,3.66,3.66,0,0,0,.48,1,3.71,3.71,0,0,0,.86.85A2.94,2.94,0,0,0,9,33.17a5.55,5.55,0,0,0,1.42-.06c0,.19.06,1.79.15,3.57A43.38,43.38,0,0,0,8.24,51.14h0c0,9.49,2.7,18,7.87,23.41a5.19,5.19,0,0,0,1.13.91,55.311,55.311,0,0,1,4.09-5.89,19.279,19.279,0,0,1,2.12-2.33c1.21-1,2.38-2,3.54-2.82a29.43,29.43,0,0,1,10.25-4.53,41.79,41.79,0,0,0-9.78,6.24A36,36,0,0,0,18.9,76.45a4.08,4.08,0,0,0,2.06.93c.54-.62,3.29-5.66,7.52-9.72a35.45,35.45,0,0,1,23.88-9.74,50.5,50.5,0,0,0,.45-6.77A47.51,47.51,0,0,0,51.62,40.4l6.27-7S58.33,33,58.14,32.71Z"/>
    <path id="Caminho_149" data-name="Caminho 149" d="M12.87,41.39C12.73,41.11,12,26.32,12,25.8l.78-.57v-.15a2,2,0,0,1-1.46-.58l-.2-4.5a3.51,3.51,0,0,1-1.92-.62A1.28,1.28,0,0,1,9,17.66a5.33,5.33,0,0,0,2.56.62c.2,0,.66.47.9.58s.79.39,1,.49.33.57.39.74,7.39,19.21,7.51,19.43.56,3.41.57,3.65a26,26,0,0,0,1.35,3.06A5.82,5.82,0,0,0,19.38,48a12.82,12.82,0,0,0-2.66,5.22C16.64,52.59,13,41.66,12.87,41.39Z"/>
    <path id="Caminho_150" data-name="Caminho 150" d="M11.37,29.56a4.8,4.8,0,0,0-2.17-.68,4.33,4.33,0,0,0-2.2.61.78.78,0,0,1-.19-1,.823.823,0,0,1,.43-.47l-.23-4a9.83,9.83,0,0,1,1.43-.89.6.6,0,0,0,.43-.63,7.84,7.84,0,0,1,1.63,1.64,3.17,3.17,0,0,1,.6,1.73,10.07,10.07,0,0,1-.09,2.2,1.12,1.12,0,0,1,.51.71A1.18,1.18,0,0,1,11.37,29.56Z" fill="#fff"/>
    <path id="Caminho_151" data-name="Caminho 151" d="M47.72,42a7.55,7.55,0,0,0-1.5-3.33l9.47-4.22Z" fill="#fff"/>
    <path id="Caminho_152" data-name="Caminho 152" d="M21.73,26.28l8,7.28a5.83,5.83,0,0,0-2.25,2.57Z" fill="#fff"/>
    <path id="Caminho_153" data-name="Caminho 153" d="M26.41,40.68a2.84,2.84,0,0,0-.45,1.2,3.13,3.13,0,0,0,0,1.24L23.5,41.43c0-.58-.13-1.53-.17-2v-.21Z"/>
    <path id="Caminho_154" data-name="Caminho 154" d="M22.21,59.55a18.49,18.49,0,0,1-2.11,7.26c-.69,1.18-2.63,3.56-3.29,4.44a21.2,21.2,0,0,0,1.26-7.71c-.05-1.8-.59-5.72-.11-8.33a9.5,9.5,0,0,1,3.16-6,6,6,0,0,1,5.7-1.24l2.25,4.22a5,5,0,0,0-3.86.78C23.2,54.44,22.53,56.54,22.21,59.55Z" fill="#fff"/>
    <path id="Caminho_155" data-name="Caminho 155" d="M22.41,65.31a35.321,35.321,0,0,0,1.47-5.93c.27-1.5.51-3.71,2.31-5.17a3.71,3.71,0,0,1,2.91-.67l2.57,5.17a1.5,1.5,0,0,0,1.46.73C30.73,60.2,24.74,63.07,22.41,65.31Z" fill="#fff"/>
    <path id="Caminho_156" data-name="Caminho 156" d="M44.1,48.77a1.62,1.62,0,0,0,0,1.7c.26.45,1.61,2.92,1.61,2.92a17.38,17.38,0,0,0,1.16,2.44h2.36c-.91-2-2.94-5.82-2.94-5.82l-.14-3.12a8.05,8.05,0,0,0-2.05,1.88Z" fill="#fff"/>
    <path id="Caminho_157" data-name="Caminho 157" d="M33.25,32.26a9.57,9.57,0,0,1,4,.39L34.94,19.57Z" fill="#fff"/>
    <path id="Caminho_158" data-name="Caminho 158" d="M28.28,37.82a4.82,4.82,0,0,0,0,2.33,2.6,2.6,0,0,0-1,1.61,1.71,1.71,0,0,0,.42,1.49,2.9,2.9,0,0,1,.7-1.74,4.72,4.72,0,0,1,1.5-1L30,41.6a3,3,0,0,0-1.21,1.28l.06,1.81,1.37-.83.26.56L30,47.58l.79-.13,1.4.58-1.37,1.16v.45a.81.81,0,0,1,.68-.27,7.76,7.76,0,0,1,1.73.57v.29H30.79c-.1.31.19.54.37.68a3.92,3.92,0,0,1,.82-.27c.19,0,.6.12,1,.16l-.43.57a.79.79,0,0,1-.64.09c-.22-.05-.45.27-.45.54a6.789,6.789,0,0,0,.16,1,1.11,1.11,0,0,0,1.41.8,21.309,21.309,0,0,0,2.85-.84l-2.09,2.93L34.68,59a52.059,52.059,0,0,1,10-2.76,25.43,25.43,0,0,1-1.15-2.33L41.2,48.67l.31-.76a2.26,2.26,0,0,0,1.8-.6,6.18,6.18,0,0,0,1.32-1.59.76.76,0,0,0-.87,0c-.27.2-.49.54-.86.38s-.21-.64-.16-1.06-.48-.41-.85-.1a1.33,1.33,0,0,1-1.65-.32,32,32,0,0,0-3.77-3A6.51,6.51,0,0,0,32.3,41c-.73.13-1.24.45-1.51.31l-.9-1.4L30,39.8c.31.14.63.39,1,.24a14,14,0,0,1,3-.46,14.6,14.6,0,0,1,5,1.06c0,1.2,2.43,2.7,3.51,2.82a2.75,2.75,0,0,0,2-.45l-2.31-2,1.22-1.56s2,1.87,2.25,2.24a1.58,1.58,0,0,0-.07-.82c-.1-.6-1.58-2.36-4.1-4.27-2-1.51-4.88-3-7.25-3a5.83,5.83,0,0,0-5.97,4.22Z" fill="#fff"/>
    <path id="Caminho_159" data-name="Caminho 159" d="M13.83,20.1c-.06-.17-.19-.66-.39-.74s-.72-.37-1-.49-.7-.58-.9-.58A5.33,5.33,0,0,1,9,17.66a1.28,1.28,0,0,0,.24,1.68,3.51,3.51,0,0,0,1.92.62l.21,4.53a2,2,0,0,0,1.46.58v.15L12,25.8c0,.52.72,15.32.86,15.59s3.76,11.2,3.85,11.87A12.82,12.82,0,0,1,19.38,48a5.82,5.82,0,0,1,3.89-1.79,26,26,0,0,1-1.35-3.06c0-.24-.45-3.42-.57-3.65S13.89,20.29,13.83,20.1Z" fill="#fff"/>
    <path id="Caminho_160" data-name="Caminho 160" d="M9.17,16.49a4.72,4.72,0,0,1,3.52,1.32A1.92,1.92,0,0,0,12,16a4.66,4.66,0,0,0-3-.83,4.11,4.11,0,0,0-2.56.8,1.72,1.72,0,0,0-.54,1.79C6.13,17.15,7.45,16.47,9.17,16.49Z" fill="#fff"/>
    <path id="Caminho_161" data-name="Caminho 161" d="M5.45,5.63A3.33,3.33,0,0,0,6,7.72c.21.29.7.83,1.06.8.51,0,1-1,2.22-1,.79,0,1.3,1.16,2,1.2.51,0,.78-.5,1.32-.53s.61.15.87.43a3,3,0,0,1,1.14-1.2c.79-.62,3.61-1.19,4.8-2.26A2.29,2.29,0,0,0,19.92,3,4.33,4.33,0,0,1,17,4.35a7.79,7.79,0,0,1-2.6-.52,1.48,1.48,0,0,0,.13-1.44,7.76,7.76,0,0,1-2.77.48c-.68,0-2-.28-3-.23A3.3,3.3,0,0,0,5.45,5.63Z" fill="#fff"/>
    <path id="Caminho_162" data-name="Caminho 162" d="M9.29,12.53c4.81.11,7,2.31,7,4.15A3.45,3.45,0,0,0,16.51,15c0-.49-.76-1.85-.77-2.31a3.59,3.59,0,0,1,.16-1.2c-.29.06-1.36.5-1.82.13s-.14-1.36-.79-1.61-1.64.52-2.29.44-1.2-1-1.87-1-1,.82-1.82,1c-.63.14-1.4-.25-1.78-.21a1.189,1.189,0,0,0-.86.74,1,1,0,0,1-.8.69c-.39.1-1-.24-1.22-.19a2.15,2.15,0,0,1,.12,1.6A6.89,6.89,0,0,0,2,15.19a3,3,0,0,0,.37,1.55C2.21,14.14,5.08,12.46,9.29,12.53Z" fill="#fff"/>
    <path id="Caminho_163" data-name="Caminho 163" d="M6.26,21.75a3.09,3.09,0,0,0-1.38,1.18,3,3,0,0,0,.89,1.46,2.72,2.72,0,0,1,.74-1.22,6,6,0,0,1,.84-.47.5.5,0,0,0,.33-.52,1.63,1.63,0,0,0-.14-.68c.22,0,.68,0,.84-.21a1.38,1.38,0,0,0,.22-.76c0-.26-.11-.33-.4-.36a13.67,13.67,0,0,0-1.48,0l.81-.39a.57.57,0,0,0,.27-.43,2.84,2.84,0,0,0-.06-.91,6.74,6.74,0,0,0-3,1.22l.33.82h-.6a2.34,2.34,0,0,0,.15,1.41,8.92,8.92,0,0,1,1.64-.14Z" fill="#fff"/>
    <path id="Caminho_164" data-name="Caminho 164" d="M40.89,34.24a18.82,18.82,0,0,1,3.25,2.29L49,26.23Z" fill="#fff"/>
    <path id="Caminho_165" data-name="Caminho 165" d="M31.59,44a2.84,2.84,0,0,1,1.29,1l.72-.18-.31-.49a3.36,3.36,0,0,1,1-.25,2.43,2.43,0,0,1,1.52.37l1.56-.37.21-.33c-1.09-.86-2.65-1.69-4-1.41a8.46,8.46,0,0,0-2,.79V44Zm9.6-3.85,1.13-1.58a32.349,32.349,0,0,0-3.84-2.44l-.86,2.25A25.161,25.161,0,0,1,41.19,40.15Zm-8.9-2.33c1-.22,3.41-.3,4.15.2l.41-2.38a6.58,6.58,0,0,0-2.75-.6,4.86,4.86,0,0,0-2.55.68l.74,2.1Zm-3.07,1.73a11.85,11.85,0,0,1,2-1.44l-.76-1.79c-.53.54-1.64,1.91-1.23,3.26Z"/>
  </g>
</svg>
