<svg xmlns="http://www.w3.org/2000/svg" width="20.96" height="20.96" viewBox="0 0 20.96 20.96">
  <g id="Icon" transform="translate(-1 13.542)">
    <g id="Grupo_13" data-name="Grupo 13" transform="translate(1 -13.542)">
      <g id="Grupo_12" data-name="Grupo 12" transform="translate(0 0)">
        <path id="Caminho_22" data-name="Caminho 22" d="M21.69,15.388a3.823,3.823,0,0,0-.386-.581,8.555,8.555,0,0,0-1.4-1.346c-.4-.317-.828-.619-1.254-.9-.256-.168-.458-.292-.578-.362a1.961,1.961,0,0,0-2.781.471l-.1.124c-.113.133-.228.267-.338.39l-.047.053c-.181.2-.347.375-.341.37a1.117,1.117,0,0,1-1.688-.172L8.525,9.191A1.117,1.117,0,0,1,8.353,7.5c0,.006.167-.159.37-.34l.053-.047c.123-.109.257-.224.39-.338l.124-.1A1.957,1.957,0,0,0,9.767,3.9c-.076-.129-.2-.331-.367-.587-.279-.426-.581-.853-.9-1.254A8.554,8.554,0,0,0,7.155.657,3.827,3.827,0,0,0,6.573.272a2.327,2.327,0,0,0-2.733.41L2.9,1.621C-.209,4.733.649,8.441,4.367,12.159l2.717,2.718L9.8,17.595c3.718,3.718,7.427,4.576,10.539,1.464l.937-.938A2.325,2.325,0,0,0,21.69,15.388Zm-1.645,1.5-.938.939c-2.277,2.277-4.947,1.659-8.071-1.464L8.318,13.643,5.6,10.926C2.478,7.8,1.86,5.131,4.137,2.855l.937-.938a.582.582,0,0,1,.683-.1,2.12,2.12,0,0,1,.314.211,6.956,6.956,0,0,1,1.06,1.116c.282.356.555.742.807,1.127.151.231.26.408.317.5.157.277.148.4.1.424l-.132.091-.189.16c-.141.12-.282.242-.415.359l-.058.051a4.133,4.133,0,0,0-.655.665,2.825,2.825,0,0,0,.383,3.9l4.246,4.246a2.825,2.825,0,0,0,3.9.383A4.131,4.131,0,0,0,16.1,14.4l.051-.058c.117-.133.239-.274.359-.415l.16-.189.091-.132c.026-.046.147-.056.433.107.087.051.264.16.5.311.385.252.771.525,1.127.807a6.955,6.955,0,0,1,1.116,1.06,2.119,2.119,0,0,1,.212.315A.58.58,0,0,1,20.045,16.886Z" transform="translate(-1 -0.002)" fill="#fff"/>
      </g>
    </g>
    <path id="Caminho_24" data-name="Caminho 24" d="M16.745,15.425l2.6,2.184,1.21,2.508-2.3,1.77.177,2.125,5.488,5.223,2.39-.5,1.829-1.771,2.508,1.918,1.623,1.947L30.643,33.1,27.81,34.693l-3.01-.561L21.584,31.8l-7.731-8.173-.885-2.449.148-3.01s2.331-2.331,2.419-2.449A5.5,5.5,0,0,1,16.745,15.425Z" transform="translate(-11.04 -28.062)" fill="#fff"/>
  </g>
</svg>
