<svg id="Icon" xmlns="http://www.w3.org/2000/svg" width="21" height="21" viewBox="0 0 21 21">
  <path id="Caminho_25" data-name="Caminho 25" d="M10.5,19.688A9.188,9.188,0,1,0,1.312,10.5,9.187,9.187,0,0,0,10.5,19.688ZM10.5,21A10.5,10.5,0,1,0,0,10.5,10.5,10.5,0,0,0,10.5,21Z" fill="#fff" fill-rule="evenodd"/>
  <path id="Caminho_26" data-name="Caminho 26" d="M9.862,6.588l-3.168.4-.113.526.623.115c.407.1.487.244.4.649l-1.021,4.8C6.312,14.314,6.726,14.9,7.7,14.9a2.865,2.865,0,0,0,2.027-.827l.122-.576a1.533,1.533,0,0,1-.949.34c-.38,0-.519-.267-.421-.737Z" transform="translate(2.5 1.685)" fill="#fff"/>
  <circle id="Elipse_1" data-name="Elipse 1" cx="1.291" cy="1.291" r="1.291" transform="translate(9.78 5)" fill="#fff"/>
</svg>
