<svg id="Logo" xmlns="http://www.w3.org/2000/svg" width="199.944" height="62.368" viewBox="0 0 199.944 62.368">
  <g id="TDK" transform="translate(61.831 7.308)">
    <g id="Grupo_194" data-name="Grupo 194" transform="translate(0 0)">
      <rect id="Retângulo_86" data-name="Retângulo 86" width="8.586" height="27.475" transform="translate(16.957 9.444)" fill="#fff"/>
      <path id="Caminho_292" data-name="Caminho 292" d="M343.031,149.075c-4.794-4.507-11.161-5.152-16.027-5.152H260.171v6.725H271.5v-.01h45.772v.01h9.805c4.722,0,12.163,1.216,12.163,11.519,0,2.5-.215,6.01-3.219,8.657-2.147,1.932-5.868,3.291-11.377,3.291H311.837V153.367l-8.585,5.62v21.855h21.534c6.01,0,11.233-.5,15.168-2.861,3.363-2,8.157-6.869,8.157-15.813C348.111,156.591,346.465,152.223,343.031,149.075Z" transform="translate(-260.171 -143.923)" fill="#fff"/>
    </g>
    <path id="Caminho_293" data-name="Caminho 293" d="M465.863,180.842h-8.586V143.923h8.586Z" transform="translate(-365.045 -143.923)" fill="#fff"/>
    <path id="Caminho_294" data-name="Caminho 294" d="M488.83,161.31,513.3,143.924H500.852L481.99,158.1v7.676L502.5,180.842h13.81Z" transform="translate(-378.193 -143.923)" fill="#fff"/>
  </g>
  <g id="Corretora" transform="translate(77.916 52.255)">
    <path id="Caminho_295" data-name="Caminho 295" d="M295.892,243.624c0,1.45.674,1.962,1.7,1.962a2.689,2.689,0,0,0,1.66-.553l.493,1.157a3.705,3.705,0,0,1-2.154.654c-1.771,0-3.048-.925-3.048-3.219V243.2c0-2.294,1.278-3.219,3.048-3.219a3.773,3.773,0,0,1,2.154.644l-.493,1.157a3.159,3.159,0,0,0-1.66-.544c-1.026,0-1.7.523-1.7,1.962Z" transform="translate(-294.544 -239.981)" fill="#fc0"/>
    <path id="Caminho_296" data-name="Caminho 296" d="M307.982,243.2c0-2.314,1.157-3.219,2.746-3.219s2.747.906,2.747,3.219v.422c0,2.314-1.157,3.219-2.747,3.219s-2.746-.906-2.746-3.219Zm4.135,0c0-1.489-.554-1.962-1.389-1.962s-1.389.473-1.389,1.962v.422c0,1.489.554,1.962,1.389,1.962s1.389-.473,1.389-1.962Z" transform="translate(-301.694 -239.981)" fill="#fc0"/>
    <path id="Caminho_297" data-name="Caminho 297" d="M325.395,244.3h-1.034v2.566H323.01v-6.54h2.556c1.813,0,2.525.836,2.525,1.994a1.769,1.769,0,0,1-1.3,1.781l1.832,2.767H327.08Zm-1.036-2.719v1.459h1.207c.886,0,1.178-.333,1.178-.725,0-.442-.292-.735-1.178-.735Z" transform="translate(-309.69 -240.164)" fill="#fc0"/>
    <path id="Caminho_298" data-name="Caminho 298" d="M339.715,244.3h-1.037v2.566H337.33v-6.54h2.555c1.813,0,2.525.836,2.525,1.994a1.769,1.769,0,0,1-1.3,1.781l1.831,2.767h-1.55Zm-1.037-2.719v1.459h1.207c.886,0,1.178-.333,1.178-.725,0-.442-.292-.735-1.178-.735Z" transform="translate(-317.309 -240.164)" fill="#fc0"/>
    <path id="Caminho_299" data-name="Caminho 299" d="M353,245.609h3.535v1.258h-4.88v-6.54h4.88v1.258H353v1.207h3.129v1.258H353Z" transform="translate(-324.927 -240.164)" fill="#fc0"/>
    <path id="Caminho_300" data-name="Caminho 300" d="M363.818,240.327h5.625v1.258h-2.134v5.282h-1.36v-5.282h-2.133Z" transform="translate(-331.402 -240.164)" fill="#fc0"/>
    <path id="Caminho_301" data-name="Caminho 301" d="M377.965,243.2c0-2.314,1.157-3.219,2.746-3.219s2.747.906,2.747,3.219v.422c0,2.314-1.158,3.219-2.747,3.219s-2.746-.906-2.746-3.219Zm4.136,0c0-1.489-.554-1.962-1.389-1.962s-1.389.473-1.389,1.962v.422c0,1.489.554,1.962,1.389,1.962s1.389-.473,1.389-1.962Z" transform="translate(-338.929 -239.981)" fill="#fc0"/>
    <path id="Caminho_302" data-name="Caminho 302" d="M395.379,244.3h-1.037v2.566h-1.348v-6.54h2.556c1.813,0,2.525.836,2.525,1.994a1.769,1.769,0,0,1-1.3,1.781l1.832,2.767h-1.55Zm-1.037-2.719v1.459h1.208c.885,0,1.178-.333,1.178-.725,0-.442-.292-.735-1.178-.735Z" transform="translate(-346.926 -240.164)" fill="#fc0"/>
    <path id="Caminho_303" data-name="Caminho 303" d="M408.333,240.327h1.379l2.375,6.54H410.71l-.614-1.69h-2.143l-.614,1.69h-1.378Zm.07,3.592h1.228l-.614-1.69Z" transform="translate(-353.824 -240.164)" fill="#fc0"/>
    <path id="Caminho_304" data-name="Caminho 304" d="M427.158,240.327H429.2c1.862,0,3.039.866,3.039,3.059v.422c0,2.193-1.178,3.059-3.039,3.059h-2.042Zm3.733,3.059c0-1.369-.573-1.8-1.69-1.8h-.694v4.024h.694c1.117,0,1.69-.432,1.69-1.8Z" transform="translate(-365.104 -240.164)" fill="#fc0"/>
    <path id="Caminho_305" data-name="Caminho 305" d="M442.652,245.609h3.535v1.258H441.3v-6.54h4.88v1.258h-3.535v1.207h3.13v1.258h-3.13Z" transform="translate(-372.63 -240.164)" fill="#fc0"/>
    <path id="Caminho_306" data-name="Caminho 306" d="M460.168,245.044a4.26,4.26,0,0,0,2.164.544c.765,0,1.258-.231,1.258-.644,0-.5-.483-.7-1.4-.906-1.016-.262-2.345-.725-2.345-2.193,0-1.489,1.238-1.862,2.485-1.862a4.9,4.9,0,0,1,2.556.644l-.523,1.147a3.807,3.807,0,0,0-2.033-.534c-.594,0-1.127.15-1.127.6,0,.574.816.694,1.247.836,1.67.453,2.5,1.016,2.5,2.266,0,1.641-1.529,1.9-2.616,1.9a5.462,5.462,0,0,1-2.687-.654Z" transform="translate(-382.389 -239.981)" fill="#fc0"/>
    <path id="Caminho_307" data-name="Caminho 307" d="M475.227,245.609h3.535v1.258h-4.88v-6.54h4.88v1.258h-3.535v1.207h3.129v1.258h-3.129Z" transform="translate(-389.962 -240.164)" fill="#fc0"/>
    <path id="Caminho_308" data-name="Caminho 308" d="M489.187,242.961h2.838v3.229a3.706,3.706,0,0,1-2.153.654c-1.771,0-3.048-.925-3.048-3.219V243.2c0-2.294,1.277-3.219,3.048-3.219a3.772,3.772,0,0,1,2.153.644l-.493,1.157a3.16,3.16,0,0,0-1.66-.544c-1.026,0-1.7.523-1.7,1.962v.421c0,1.45.674,1.962,1.7,1.962a3,3,0,0,0,.8-.111v-1.36h-1.489Z" transform="translate(-396.849 -239.981)" fill="#fc0"/>
    <path id="Caminho_309" data-name="Caminho 309" d="M501.034,240.327h1.348v3.481c0,1.489.513,1.962,1.3,1.962s1.288-.473,1.288-1.962v-3.481h1.348v3.481c0,2.314-1.117,3.219-2.637,3.219s-2.647-.906-2.647-3.219Z" transform="translate(-404.41 -240.164)" fill="#fc0"/>
    <path id="Caminho_310" data-name="Caminho 310" d="M518.188,244.3h-1.036v2.566H515.8v-6.54h2.555c1.813,0,2.525.836,2.525,1.994a1.769,1.769,0,0,1-1.3,1.781l1.831,2.767h-1.55Zm-1.036-2.719v1.459h1.207c.886,0,1.178-.333,1.178-.725,0-.442-.292-.735-1.178-.735Z" transform="translate(-412.269 -240.164)" fill="#fc0"/>
    <path id="Caminho_311" data-name="Caminho 311" d="M529.737,243.2c0-2.314,1.157-3.219,2.747-3.219s2.747.906,2.747,3.219v.422c0,2.314-1.157,3.219-2.747,3.219s-2.747-.906-2.747-3.219Zm4.136,0c0-1.489-.554-1.962-1.389-1.962s-1.388.473-1.388,1.962v.422c0,1.489.553,1.962,1.388,1.962s1.389-.473,1.389-1.962Z" transform="translate(-419.682 -239.981)" fill="#fc0"/>
    <path id="Caminho_312" data-name="Caminho 312" d="M544.514,245.044a4.26,4.26,0,0,0,2.164.544c.765,0,1.258-.231,1.258-.644,0-.5-.483-.7-1.4-.906-1.016-.262-2.345-.725-2.345-2.193,0-1.489,1.237-1.862,2.485-1.862a4.9,4.9,0,0,1,2.556.643l-.523,1.148a3.807,3.807,0,0,0-2.033-.534c-.593,0-1.127.15-1.127.6,0,.574.816.694,1.247.836,1.67.453,2.495,1.016,2.495,2.266,0,1.641-1.529,1.9-2.617,1.9a5.462,5.462,0,0,1-2.686-.654Z" transform="translate(-427.266 -239.981)" fill="#fc0"/>
  </g>
  <g id="Emblema" transform="translate(0 0)">
    <path id="Caminho_313" data-name="Caminho 313" d="M181.243,135.132a78.026,78.026,0,0,0-8.017-3.514,50.375,50.375,0,0,0-35.926,0,78,78,0,0,0-8.017,3.514l-1.25.649V167.3A18.744,18.744,0,0,0,137.7,181.79c8.2,4.754,16.287,8.325,16.628,8.475l.933.411.933-.411c.341-.15,8.429-3.721,16.627-8.475a18.744,18.744,0,0,0,9.668-14.491V135.78Zm-28.3,49.393c-3.111-1.475-8.04-3.914-12.919-6.743a14.851,14.851,0,0,1-6.285-6.814,12.5,12.5,0,0,1-1.076-3.844v-28.5c1.8-.871,3.909-1.767,6.284-2.672a45.625,45.625,0,0,1,14-2.948Zm24.914-17.4a12.393,12.393,0,0,1-1,3.664,14.814,14.814,0,0,1-6.362,6.989c-4.874,2.827-9.805,5.267-12.919,6.743V133a45.633,45.633,0,0,1,14,2.948c2.375.906,4.481,1.8,6.283,2.672Z" transform="translate(-128.033 -128.306)" fill="#fc0"/>
    <path id="Caminho_314" data-name="Caminho 314" d="M152.99,173.652l-7.945,7.959,3.354,3.36L159.762,173.7l-11.269-11.311-3.415,3.4Z" transform="translate(-137.084 -146.441)" fill="#fc0"/>
    <path id="Caminho_315" data-name="Caminho 315" d="M207.342,162.265l-11.271,11.33L207.318,184.9l3.384-3.388-7.886-7.949,7.9-7.9Z" transform="translate(-164.234 -146.375)" fill="#fc0"/>
  </g>
</svg>
