<svg xmlns="http://www.w3.org/2000/svg" width="180.68" height="76.494" viewBox="0 0 180.68 76.494">
  <g id="Grupo_42" data-name="Grupo 42" transform="translate(-74 -147.563)">
    <path id="Caminho_166" data-name="Caminho 166" d="M241.13,161.1a5.78,5.78,0,0,0-5.087-2.157,11.841,11.841,0,0,0-9.72-8.98l-15.986-2.375a2.648,2.648,0,0,0-3.036,2.618V187.4a2.647,2.647,0,1,0,5.293,0v-23.16h15.748v19.7a4.747,4.747,0,0,0,4.742,4.742h16.3v4.34h-1.247a2.647,2.647,0,1,0,0,5.293h1.247v9.517h-6.013a12.836,12.836,0,0,0-24.765,0h-6.013V186.462a2.647,2.647,0,1,0-5.293,0V198.1h-4.415V152.756a5.2,5.2,0,0,0-5.193-5.193H102.977a2.647,2.647,0,0,0,0,5.293h94.616V198.1H84.942V152.857h20.375a2.647,2.647,0,0,0,0-5.293H84.842a5.2,5.2,0,0,0-5.193,5.193V198.1h-3A2.646,2.646,0,0,0,74,200.748V207.5a5.634,5.634,0,0,0,5.628,5.628h2.446v1.626H76.647a2.647,2.647,0,1,0,0,5.293h8.074a2.646,2.646,0,0,0,2.647-2.647v-4.272h2.873a12.839,12.839,0,0,0,25.392,0H138a2.647,2.647,0,0,0,0-5.293H115.32a12.8,12.8,0,0,0-2.214-4.44h48.408a12.8,12.8,0,0,0-2.214,4.44H136.375a2.647,2.647,0,1,0,0,5.293h22.611a12.839,12.839,0,0,0,25.392,0H218.3a12.839,12.839,0,0,0,25.392,0h6.08a4.919,4.919,0,0,0,4.914-4.913V180.957c0-3.14-1.5-3.231-13.55-19.854ZM102.937,218.764a7.554,7.554,0,0,1-7.545-7.545c0-.157.006-.312.016-.466v0a7.544,7.544,0,0,1,15.058,0v0c.01.154.016.31.016.466A7.554,7.554,0,0,1,102.937,218.764ZM90.554,207.834H79.629a.335.335,0,0,1-.335-.335v-4.105H92.768A12.792,12.792,0,0,0,90.554,207.834Zm116.748-4.44v4.44H184.065a12.8,12.8,0,0,0-2.214-4.44Zm-35.62,15.369a7.554,7.554,0,0,1-7.545-7.545c0-.157.006-.312.016-.466v0a7.544,7.544,0,0,1,15.058,0v0c.01.154.016.31.016.466a7.554,7.554,0,0,1-7.545,7.545Zm59.309,0a7.545,7.545,0,1,1,7.545-7.545A7.554,7.554,0,0,1,230.991,218.764ZM225.545,155.2a6.5,6.5,0,0,1,4.936,3.743H212.6v-5.668Zm8.092,28.188V164.24h3.18a.1.1,0,0,1,.08.04l12.47,16.618a.1.1,0,0,1,.02.06v2.433Z" fill="#fc0"/>
    <g id="Grupo_33" data-name="Grupo 33" transform="translate(96.753 158.421)">
      <path id="Caminho_167" data-name="Caminho 167" d="M141.124,212.447a2.646,2.646,0,0,0,2.647-2.647V180.978a2.647,2.647,0,1,0-5.293,0V209.8A2.646,2.646,0,0,0,141.124,212.447Z" transform="translate(-138.477 -178.331)" fill="#fc0"/>
      <path id="Caminho_168" data-name="Caminho 168" d="M203.092,209.8V180.978a2.647,2.647,0,0,0-5.293,0V209.8a2.647,2.647,0,0,0,5.293,0Z" transform="translate(-176.865 -178.331)" fill="#fc0"/>
      <path id="Caminho_169" data-name="Caminho 169" d="M265.825,209.8V180.978a2.647,2.647,0,1,0-5.293,0V209.8a2.647,2.647,0,1,0,5.293,0Z" transform="translate(-217.46 -178.331)" fill="#fc0"/>
      <path id="Caminho_170" data-name="Caminho 170" d="M321.735,209.8V180.978a2.647,2.647,0,1,0-5.293,0V209.8a2.647,2.647,0,1,0,5.293,0Z" transform="translate(-253.64 -178.331)" fill="#fc0"/>
      <path id="Caminho_171" data-name="Caminho 171" d="M381.057,209.8V180.978a2.647,2.647,0,1,0-5.293,0V209.8a2.647,2.647,0,1,0,5.293,0Z" transform="translate(-292.028 -178.331)" fill="#fc0"/>
    </g>
  </g>
</svg>
