<svg xmlns="http://www.w3.org/2000/svg" width="22.257" height="25.966" viewBox="0 0 22.257 25.966">
  <g id="Ãcone" transform="translate(-2 -1)">
    <path id="Caminho_99" data-name="Caminho 99" d="M5.709,1H20.547a3.709,3.709,0,0,1,3.709,3.709V23.257a3.709,3.709,0,0,1-3.709,3.709H5.709A3.709,3.709,0,0,1,2,23.257V4.709A3.709,3.709,0,0,1,5.709,1Zm0,1.855A1.855,1.855,0,0,0,3.855,4.709V23.257a1.855,1.855,0,0,0,1.855,1.855H20.547A1.855,1.855,0,0,0,22.4,23.257V4.709a1.855,1.855,0,0,0-1.855-1.855Z" transform="translate(0 0)" fill="#7c7c7b" fill-rule="evenodd"/>
    <path id="Caminho_100" data-name="Caminho 100" d="M23.671,16.564C22.75,14.209,19.984,11,12.944,11S3.138,14.209,2.216,16.564Z" transform="translate(0.185 8.547)" fill="#7c7c7b"/>
    <path id="Caminho_101" data-name="Caminho 101" d="M10.564,15.128A5.564,5.564,0,1,0,5,9.564,5.564,5.564,0,0,0,10.564,15.128Z" transform="translate(2.564 2.564)" fill="#7c7c7b" fill-rule="evenodd"/>
  </g>
</svg>
