<svg id="Item_Phone" data-name="Item Phone" xmlns="http://www.w3.org/2000/svg" width="25.287" height="25.287" viewBox="0 0 25.287 25.287">
  <g id="Grupo_11" data-name="Grupo 11" transform="translate(0 0)">
    <g id="Grupo_10" data-name="Grupo 10">
      <path id="Caminho_16" data-name="Caminho 16" d="M25.961,18.564a4.613,4.613,0,0,0-.465-.7A10.322,10.322,0,0,0,23.8,16.239c-.484-.383-1-.747-1.513-1.084-.309-.2-.552-.352-.7-.437a2.365,2.365,0,0,0-3.355.568l-.127.15c-.137.161-.276.322-.407.471l-.057.064c-.218.245-.418.452-.411.447A1.348,1.348,0,0,1,15.2,16.21l-5.123-5.122a1.348,1.348,0,0,1-.207-2.037c-.005.008.2-.192.447-.411l.064-.057c.149-.132.31-.27.471-.407L11,8.049a2.361,2.361,0,0,0,.574-3.343c-.091-.156-.241-.4-.443-.708-.336-.514-.7-1.029-1.084-1.513A10.32,10.32,0,0,0,8.426.793a4.617,4.617,0,0,0-.7-.465,2.808,2.808,0,0,0-3.3.495L3.3,1.955C-.459,5.709.576,10.183,5.062,14.669L8.34,17.948l3.279,3.278c4.486,4.486,8.96,5.521,12.715,1.766l1.131-1.132A2.8,2.8,0,0,0,25.961,18.564Zm-1.985,1.808L22.845,21.5c-2.747,2.747-5.969,2-9.737-1.767L9.829,16.46,6.551,13.181C2.783,9.413,2.038,6.191,4.784,3.444L5.915,2.312a.7.7,0,0,1,.825-.123,2.558,2.558,0,0,1,.379.255A8.392,8.392,0,0,1,8.4,3.791c.34.43.669.895.973,1.36.182.278.314.492.382.609.19.334.178.48.122.511l-.159.109-.229.193c-.17.145-.341.292-.5.433l-.07.062a4.986,4.986,0,0,0-.79.8,3.409,3.409,0,0,0,.462,4.707L13.712,17.7a3.409,3.409,0,0,0,4.706.462,4.984,4.984,0,0,0,.8-.79l.062-.07c.141-.16.289-.33.433-.5l.193-.229.109-.159c.031-.056.177-.068.523.129.105.062.319.193.6.375.465.3.93.634,1.36.973a8.391,8.391,0,0,1,1.347,1.279,2.557,2.557,0,0,1,.255.38A.7.7,0,0,1,23.977,20.372Z" transform="translate(-1 -0.002)" fill="#fff"/>
    </g>
  </g>
</svg>
