<svg xmlns="http://www.w3.org/2000/svg" width="40.802" height="36.02" viewBox="0 0 40.802 36.02">
  <g id="Grupo_133" data-name="Grupo 133" transform="translate(-568.299 -612.159)">
    <path id="Caminho_255" data-name="Caminho 255" d="M597.852,635.642a10.861,10.861,0,0,0,0-12.339,34.078,34.078,0,0,1,8.4,6.17,34.117,34.117,0,0,1-8.4,6.169m-26.7-6.169a34.072,34.072,0,0,1,8.4-6.17,10.861,10.861,0,0,0,0,12.339,34.1,34.1,0,0,1-8.4-6.169m26.234,0a8.682,8.682,0,1,1-8.682-8.58,8.641,8.641,0,0,1,8.682,8.58m11.421-.79a36.009,36.009,0,0,0-5.835-5.076c-9.456-6.648-18.7-6.914-28.536,0a36.006,36.006,0,0,0-5.835,5.076,1.2,1.2,0,0,0,0,1.579,35.949,35.949,0,0,0,5.835,5.076c9.456,6.648,18.7,6.914,28.536,0a35.953,35.953,0,0,0,5.835-5.076,1.2,1.2,0,0,0,0-1.579" transform="translate(0 0.697)" fill="#fff"/>
    <path id="Caminho_256" data-name="Caminho 256" d="M586.8,616.941A1.2,1.2,0,0,0,588,615.746v-2.391a1.195,1.195,0,1,0-2.39,0v2.391a1.2,1.2,0,0,0,1.195,1.195" transform="translate(1.896)" fill="#fff"/>
    <path id="Caminho_257" data-name="Caminho 257" d="M593.785,618.779a1.2,1.2,0,0,0,1.633-.437l1.195-2.07a1.2,1.2,0,1,0-2.07-1.2l-1.195,2.07a1.2,1.2,0,0,0,.437,1.633" transform="translate(2.725 0.254)" fill="#fff"/>
    <path id="Caminho_258" data-name="Caminho 258" d="M586.8,640.243a1.2,1.2,0,0,0-1.195,1.195v2.471a1.195,1.195,0,1,0,2.39,0v-2.471a1.2,1.2,0,0,0-1.195-1.195" transform="translate(1.896 3.075)" fill="#fff"/>
    <path id="Caminho_259" data-name="Caminho 259" d="M595.381,638.82a1.2,1.2,0,0,0-2.07,1.195l1.235,2.14a1.2,1.2,0,1,0,2.07-1.2Z" transform="translate(2.721 2.854)" fill="#fff"/>
    <path id="Caminho_260" data-name="Caminho 260" d="M578.31,618.341a1.2,1.2,0,0,0,2.07-1.195l-1.195-2.07a1.2,1.2,0,1,0-2.07,1.195Z" transform="translate(0.948 0.254)" fill="#fff"/>
    <path id="Caminho_261" data-name="Caminho 261" d="M579.983,638.382a1.2,1.2,0,0,0-1.633.437l-1.235,2.14a1.2,1.2,0,0,0,2.07,1.195l1.235-2.139a1.2,1.2,0,0,0-.437-1.633" transform="translate(0.948 2.854)" fill="#fff"/>
    <path id="Caminho_262" data-name="Caminho 262" d="M591.289,628.805a4.189,4.189,0,1,1-4.188-4.188,4.188,4.188,0,0,1,4.188,4.188" transform="translate(1.6 1.364)" fill="#fff"/>
  </g>
</svg>
