<svg xmlns="http://www.w3.org/2000/svg" width="37.377" height="43.458" viewBox="0 0 37.377 43.458">
  <g id="Item_Folha" data-name="Item Folha" transform="translate(-35.823)">
    <path id="Caminho_12" data-name="Caminho 12" d="M72.467,13.511l-.908-4.54L69.03,9.983c-2.219.888-4.586,1.72-7.051,2.479a34.134,34.134,0,0,0-4.9-8.771L54.285,0,52.448,2.013a99.386,99.386,0,0,1-10.1,9.533A18.148,18.148,0,0,0,36.267,21.5a17.869,17.869,0,0,0,1.367,11.8l4.912,10.156h5.372a32.82,32.82,0,0,0,12.346-2.141,20.2,20.2,0,0,0,8.154-5.882c4.373-5.334,5.811-13.121,4.05-21.925Zm-4.335-.452a62.226,62.226,0,0,1-6.256,9.991,79.843,79.843,0,0,1-8.823,9.735,85.2,85.2,0,0,1-8.435,6.98V31.7a15.346,15.346,0,0,1,3.354-9.634A15.588,15.588,0,0,1,56.4,16.642c1.341-.331,2.659-.679,3.933-1.039l0,.007,1.164-.343.033-.01h0c2.285-.674,4.5-1.411,6.6-2.2Zm-29.381,9a15.588,15.588,0,0,1,5.225-8.554A102.415,102.415,0,0,0,54.1,3.978l.947,1.251a31.725,31.725,0,0,1,4.482,7.955c-1.213.341-2.466.672-3.74.986a18.148,18.148,0,0,0-9.813,6.315A17.869,17.869,0,0,0,42.071,31.7v4.926l-2.144-4.434A15.347,15.347,0,0,1,38.752,22.06Zm27.7,11.762a17.678,17.678,0,0,1-7.143,5.137,30.312,30.312,0,0,1-11.388,1.953h-.556a89.014,89.014,0,0,0,7.39-6.23,82.445,82.445,0,0,0,9.127-10.059,65.246,65.246,0,0,0,6.237-9.84C71.5,22.5,70.2,29.24,66.448,33.822Z" fill="#fff"/>
  </g>
</svg>
