<svg id="Instagram_Icon" data-name="Instagram Icon" xmlns="http://www.w3.org/2000/svg" width="26.03" height="26.035" viewBox="0 0 26.03 26.035">
  <path id="Caminho_3" data-name="Caminho 3" d="M26.412,7.654A9.513,9.513,0,0,0,25.807,4.5,6.669,6.669,0,0,0,22,.687,9.538,9.538,0,0,0,18.839.081C17.446.015,17,0,13.469,0S9.491.015,8.1.076A9.516,9.516,0,0,0,4.945.681,6.352,6.352,0,0,0,2.636,2.187a6.41,6.41,0,0,0-1.5,2.3A9.539,9.539,0,0,0,.53,7.649C.464,9.043.449,9.485.449,13.02S.464,17,.525,18.386a9.513,9.513,0,0,0,.605,3.158,6.668,6.668,0,0,0,3.809,3.809,9.539,9.539,0,0,0,3.158.605c1.388.061,1.831.076,5.366.076s3.977-.015,5.366-.076a9.511,9.511,0,0,0,3.158-.605A6.659,6.659,0,0,0,25.8,21.544a9.545,9.545,0,0,0,.605-3.158c.061-1.388.076-1.831.076-5.366s-.005-3.977-.066-5.366Zm-2.345,10.63A7.136,7.136,0,0,1,23.62,20.7a4.319,4.319,0,0,1-2.472,2.472,7.161,7.161,0,0,1-2.416.447c-1.373.061-1.785.076-5.259.076s-3.891-.015-5.259-.076A7.132,7.132,0,0,1,5.8,23.172,4.006,4.006,0,0,1,4.3,22.2a4.048,4.048,0,0,1-.971-1.5,7.162,7.162,0,0,1-.447-2.416c-.061-1.373-.076-1.785-.076-5.259s.015-3.891.076-5.259a7.132,7.132,0,0,1,.447-2.416,3.957,3.957,0,0,1,.977-1.5,4.042,4.042,0,0,1,1.5-.971A7.166,7.166,0,0,1,8.22,2.441c1.373-.061,1.785-.076,5.259-.076s3.891.015,5.259.076a7.136,7.136,0,0,1,2.416.448,4,4,0,0,1,1.5.971,4.047,4.047,0,0,1,.971,1.5,7.165,7.165,0,0,1,.448,2.416c.061,1.373.076,1.785.076,5.259s-.015,3.881-.076,5.254Zm0,0" transform="translate(-0.449 0)" fill="#fff"/>
  <path id="Caminho_4" data-name="Caminho 4" d="M131.637,124.5a6.688,6.688,0,1,0,6.688,6.688A6.69,6.69,0,0,0,131.637,124.5Zm0,11.026a4.338,4.338,0,1,1,4.338-4.338A4.339,4.339,0,0,1,131.637,135.526Zm0,0" transform="translate(-118.617 -118.168)" fill="#fff"/>
  <path id="Caminho_5" data-name="Caminho 5" d="M365.573,90.163a1.561,1.561,0,1,1-1.561-1.561A1.561,1.561,0,0,1,365.573,90.163Zm0,0" transform="translate(-344.039 -84.096)" fill="#fff"/>
</svg>
