<svg xmlns="http://www.w3.org/2000/svg" width="36.025" height="36.026" viewBox="0 0 36.025 36.026">
  <g id="Grupo_132" data-name="Grupo 132" transform="translate(-400.519 -612.159)">
    <path id="Caminho_254" data-name="Caminho 254" d="M418.516,646.07a15.274,15.274,0,0,1-13.868-21.685l.656.656a1.055,1.055,0,0,0,.748.31,1.093,1.093,0,0,0,.189-.017l2.328-.422a11.566,11.566,0,1,0,4.069-4.069l.422-2.328a1.059,1.059,0,0,0-.292-.936l-.657-.656a15.278,15.278,0,1,1,6.406,29.147M402.851,619.6l2.17-.809,3.907,3.908-2.521.457Zm4.473-4.473,3.556,3.555-.457,2.522-3.908-3.908Zm11.939,14.917-2.44-2.44a3.614,3.614,0,1,1-1.495,1.495l2.441,2.44a1.057,1.057,0,0,0,1.494-1.495m-.747,6.472a5.724,5.724,0,1,0-3.229-10.448l-2.658-2.656a9.453,9.453,0,1,1-1.494,1.494l2.657,2.658a5.72,5.72,0,0,0,4.724,8.953m0-23.116a17.363,17.363,0,0,0-7.985,1.945l-2.875-2.875a1.056,1.056,0,0,0-1.738.377l-1.451,3.9-3.895,1.451a1.057,1.057,0,0,0-.378,1.738l2.875,2.875a17.39,17.39,0,1,0,15.448-9.408" transform="translate(0.635)" fill="#fff"/>
  </g>
</svg>
