<svg xmlns="http://www.w3.org/2000/svg" width="21.05" height="17.103" viewBox="0 0 21.05 17.103">
  <g id="Ãcone" transform="translate(0 -1)">
    <path id="Caminho_115" data-name="Caminho 115" d="M0,14.372a1.985,1.985,0,0,0,1.973,2h17.1a1.985,1.985,0,0,0,1.973-2V6.85L10.695,9.642a.65.65,0,0,1-.339,0L0,6.85Z" transform="translate(0 1.734)" fill="#fff" fill-rule="evenodd"/>
    <path id="Caminho_116" data-name="Caminho 116" d="M0,5.751A2.005,2.005,0,0,1,1.973,3.715h17.1A2.005,2.005,0,0,1,21.05,5.751V7.629L11.033,10.385a1.915,1.915,0,0,1-1.016,0L0,7.629ZM6.578,3.036A2.005,2.005,0,0,1,8.552,1H12.5a2.005,2.005,0,0,1,1.973,2.036v.679H13.156V3.036a.668.668,0,0,0-.658-.679H8.552a.668.668,0,0,0-.658.679v.679H6.578Z" fill="#fff" fill-rule="evenodd"/>
  </g>
</svg>
