<svg xmlns="http://www.w3.org/2000/svg" width="111.071" height="108.343" viewBox="0 0 111.071 108.343">
  <g id="Grupo_32" data-name="Grupo 32" transform="translate(-12.016 -34.079)">
    <g id="Grupo_26" data-name="Grupo 26" transform="translate(24.994 66.537)">
      <path id="Caminho_117" data-name="Caminho 117" d="M26.431,51.616h-7.4v7.4h7.4Z" transform="translate(-19.028 -51.616)" fill="#fc0"/>
      <path id="Caminho_118" data-name="Caminho 118" d="M26.431,59.616h-7.4v7.4h7.4Z" transform="translate(-19.028 -44.808)" fill="#fc0"/>
      <path id="Caminho_119" data-name="Caminho 119" d="M24.58,67.617H19.028v7.4h7.4v-7.4Z" transform="translate(-19.028 -38.001)" fill="#fc0"/>
      <path id="Caminho_120" data-name="Caminho 120" d="M24.58,75.617H19.028v7.4h7.4v-7.4Z" transform="translate(-19.028 -31.194)" fill="#fc0"/>
    </g>
    <g id="Grupo_31" data-name="Grupo 31" transform="translate(12.016 34.079)">
      <g id="Grupo_27" data-name="Grupo 27" transform="translate(0 4.696)">
        <path id="Caminho_121" data-name="Caminho 121" d="M93.474,55.124V38.467a1.85,1.85,0,0,0-1.851-1.851H43.5a1.852,1.852,0,0,0-1.851,1.851V55.124l-29.634-.05v3.282h.02V136.6h-.02v3.657h1.825c.017,0,.03.009.046.009H121.236c.054,0,.1-.026.146-.03h1.7v-1.812l0-.009V56.975a1.85,1.85,0,0,0-1.851-1.851Zm25.912,3.7v62.929H93.474V58.826Zm-103.648,0H41.65v62.929H15.738Zm0,66.631H41.65v11.105H15.738Zm29.614-1.851V40.318h44.42v96.244H84.219V118.024H50.9v18.538H45.352Zm20.359,12.956H54.606V121.755H65.711Zm14.807,0H69.413V121.755H80.518Zm38.868,0H93.474V125.457h25.912Z" transform="translate(-12.016 -36.616)" fill="#fc0"/>
        <path id="Caminho_122" data-name="Caminho 122" d="M42.431,52.019h0v-7.4h-7.4v7.4h7.4Z" transform="translate(7.563 -29.81)" fill="#fc0"/>
        <path id="Caminho_123" data-name="Caminho 123" d="M42.431,60.019h0v-7.4h-7.4v7.4h7.4Z" transform="translate(7.563 -23.003)" fill="#fc0"/>
        <path id="Caminho_124" data-name="Caminho 124" d="M42.431,68.02h0v-7.4h-7.4v7.4h7.4Z" transform="translate(7.563 -16.196)" fill="#fc0"/>
        <path id="Caminho_125" data-name="Caminho 125" d="M42.431,76.02h0v-7.4h-7.4v7.4h7.4Z" transform="translate(7.563 -9.389)" fill="#fc0"/>
        <path id="Caminho_126" data-name="Caminho 126" d="M51.878,52.019h0v-7.4h-7.4v7.4h7.4Z" transform="translate(15.601 -29.81)" fill="#fc0"/>
        <path id="Caminho_127" data-name="Caminho 127" d="M51.878,60.019h0v-7.4h-7.4v7.4h7.4Z" transform="translate(15.601 -23.003)" fill="#fc0"/>
        <path id="Caminho_128" data-name="Caminho 128" d="M51.878,68.02h0v-7.4h-7.4v7.4h7.4Z" transform="translate(15.601 -16.196)" fill="#fc0"/>
        <path id="Caminho_129" data-name="Caminho 129" d="M51.878,76.02h0v-7.4h-7.4v7.4h7.4Z" transform="translate(15.601 -9.389)" fill="#fc0"/>
        <path id="Caminho_130" data-name="Caminho 130" d="M68.431,59.019h0v-7.4h-7.4v7.4h7.4Z" transform="translate(29.685 -23.854)" fill="#fc0"/>
        <path id="Caminho_131" data-name="Caminho 131" d="M68.431,67.02h0v-7.4h-7.4v7.4h7.4Z" transform="translate(29.685 -17.046)" fill="#fc0"/>
        <path id="Caminho_132" data-name="Caminho 132" d="M68.431,75.02h0v-7.4h-7.4v7.4h7.4Z" transform="translate(29.685 -10.239)" fill="#fc0"/>
        <path id="Caminho_133" data-name="Caminho 133" d="M68.431,83.02h0v-7.4h-7.4v7.4h7.4Z" transform="translate(29.685 -3.432)" fill="#fc0"/>
      </g>
      <g id="Grupo_28" data-name="Grupo 28" transform="translate(4.513 19.048)">
        <rect id="Retângulo_10" data-name="Retângulo 10" width="5.479" height="5.981" fill="#fc0"/>
        <rect id="Retângulo_11" data-name="Retângulo 11" width="5.479" height="5.981" transform="translate(16.392)" fill="#fc0"/>
      </g>
      <g id="Grupo_29" data-name="Grupo 29" transform="translate(44.601)">
        <rect id="Retângulo_12" data-name="Retângulo 12" width="5.479" height="5.981" fill="#fc0"/>
        <rect id="Retângulo_13" data-name="Retângulo 13" width="5.479" height="5.981" transform="translate(16.392)" fill="#fc0"/>
      </g>
      <g id="Grupo_30" data-name="Grupo 30" transform="translate(84.65 19.048)">
        <rect id="Retângulo_14" data-name="Retângulo 14" width="5.479" height="5.981" fill="#fc0"/>
        <rect id="Retângulo_15" data-name="Retângulo 15" width="5.479" height="5.981" transform="translate(16.392)" fill="#fc0"/>
      </g>
    </g>
  </g>
</svg>
