<svg id="Grupo_95" data-name="Grupo 95" xmlns="http://www.w3.org/2000/svg" width="20.256" height="27.799" viewBox="0 0 20.256 27.799">
  <ellipse id="Elipse_13" data-name="Elipse 13" cx="7.607" cy="0.912" rx="7.607" ry="0.912" transform="translate(2.522 25.976)" fill="#a1a1a1" style="mix-blend-mode: multiply;isolation: isolate"/>
  <g id="Grupo_94" data-name="Grupo 94" transform="translate(0)">
    <g id="Grupo_93" data-name="Grupo 93">
      <path id="Caminho_234" data-name="Caminho 234" d="M245.576,243.686c-2.388-3-4.9-5.954-7.158-9.049a11.621,11.621,0,0,1-2.636-7.108c0-13.768,20.256-13.768,20.256,0a11.627,11.627,0,0,1-2.635,7.108c-2.263,3.1-4.771,6.049-7.159,9.049a.424.424,0,0,1-.668,0Z" transform="translate(-235.782 -217.203)" fill="#fff" fill-rule="evenodd"/>
    </g>
    <path id="Caminho_235" data-name="Caminho 235" d="M245.842,219.128a8.183,8.183,0,1,1-8.183,8.183A8.184,8.184,0,0,1,245.842,219.128Z" transform="translate(-235.713 -217.133)" fill="#fc0" fill-rule="evenodd"/>
  </g>
</svg>
