<svg xmlns="http://www.w3.org/2000/svg" width="89.771" height="79.867" viewBox="0 0 89.771 79.867">
  <path id="Icon" d="M44.886,79.867a5.264,5.264,0,0,1-3.47-1.3c-3.627-3.171-7.123-6.151-10.208-8.78l-.016-.014C22.148,62.063,14.338,55.407,8.9,48.85,2.829,41.521,0,34.571,0,26.979A28.058,28.058,0,0,1,7.122,7.816,24.14,24.14,0,0,1,25.078,0a22.58,22.58,0,0,1,14.1,4.869,28.858,28.858,0,0,1,5.7,5.955,28.861,28.861,0,0,1,5.7-5.955A22.58,22.58,0,0,1,64.693,0,24.141,24.141,0,0,1,82.65,7.816a28.058,28.058,0,0,1,7.121,19.163c0,7.592-2.829,14.542-8.9,21.871-5.434,6.557-13.243,13.212-22.286,20.919-3.09,2.633-6.592,5.618-10.227,8.8a5.268,5.268,0,0,1-3.47,1.3ZM25.078,5.259A18.939,18.939,0,0,0,10.987,11.38a22.824,22.824,0,0,0-5.729,15.6c0,6.385,2.373,12.1,7.694,18.516C18.1,51.7,25.745,58.22,34.6,65.768l.016.014c3.1,2.639,6.607,5.631,10.26,8.825,3.675-3.2,7.191-6.2,10.293-8.84C64.028,58.219,71.677,51.7,76.82,45.5c5.32-6.42,7.693-12.131,7.693-18.516a22.824,22.824,0,0,0-5.729-15.6,18.938,18.938,0,0,0-14.09-6.122,17.441,17.441,0,0,0-10.889,3.77,25.517,25.517,0,0,0-6.068,7.022,3.319,3.319,0,0,1-5.7,0,25.494,25.494,0,0,0-6.068-7.022,17.44,17.44,0,0,0-10.888-3.77Zm0,0" transform="translate(0 0)" fill="#fc0"/>
</svg>
