<svg xmlns="http://www.w3.org/2000/svg" width="33.714" height="32.358" viewBox="0 0 33.714 32.358">
  <g id="Caminho_263" data-name="Caminho 263" transform="translate(-725.848 72.573)" fill="none" stroke-linecap="round" stroke-linejoin="round">
    <path d="M742.705-69.573l4.282,8.676,9.575,1.391-6.929,6.754,1.636,9.536-8.564-4.5-8.564,4.5,1.636-9.536-6.929-6.754,9.575-1.391Z" stroke="none"/>
    <path d="M 742.7051391601563 -69.57315063476563 L 738.4230346679688 -60.89667510986328 L 728.8479614257813 -59.50534439086914 L 735.7765502929688 -52.75164413452148 L 734.1409301757813 -43.21527099609375 L 742.7051391601563 -47.71774291992188 L 751.269287109375 -43.21527099609375 L 749.6336669921875 -52.75164413452148 L 756.5623168945313 -59.50534439086914 L 746.9871826171875 -60.89667510986328 L 742.7051391601563 -69.57315063476563 M 742.7051391601563 -72.57315063476563 C 743.8471069335938 -72.57315063476563 744.8899536132813 -71.92484283447266 745.3953857421875 -70.90083312988281 L 748.9793701171875 -63.63869857788086 L 756.9937133789063 -62.47416305541992 C 758.123779296875 -62.30996322631836 759.0626220703125 -61.51843643188477 759.4154663085938 -60.43239593505859 C 759.7683715820313 -59.34635543823242 759.4740600585938 -58.15415573120117 758.6563110351563 -57.35707473754883 L 752.8571166992188 -51.70427703857422 L 754.2261352539063 -43.722412109375 C 754.4191284179688 -42.59691619873047 753.9564819335938 -41.45942687988281 753.0326538085938 -40.78822326660156 C 752.510009765625 -40.40850067138672 751.8909912109375 -40.21526336669922 751.2689819335938 -40.21526336669922 C 750.79150390625 -40.21526336669922 750.3121948242188 -40.32911682128906 749.8732299804688 -40.55988311767578 L 742.7051391601563 -44.32841491699219 L 735.5369262695313 -40.55988311767578 C 735.0980834960938 -40.32915496826172 734.61865234375 -40.21526336669922 734.1412353515625 -40.21526336669922 C 733.5191040039063 -40.21526336669922 732.9002685546875 -40.40845489501953 732.3775634765625 -40.78822326660156 C 731.4537353515625 -41.45943450927734 730.9910888671875 -42.59691619873047 731.18408203125 -43.722412109375 L 732.5531005859375 -51.70428466796875 L 726.75390625 -57.35708618164063 C 725.9362182617188 -58.1541633605957 725.6419067382813 -59.34635543823242 725.9948120117188 -60.43239593505859 C 726.34765625 -61.51843643188477 727.2864990234375 -62.30996322631836 728.4165649414063 -62.47416305541992 L 736.4308471679688 -63.63869857788086 L 740.0149536132813 -70.90085601806641 C 740.5203247070313 -71.92486572265625 741.563232421875 -72.57315063476563 742.7051391601563 -72.57315063476563 Z" stroke="none" fill="#fff"/>
  </g>
</svg>
