<svg xmlns="http://www.w3.org/2000/svg" width="103.679" height="97.203" viewBox="0 0 103.679 97.203">
  <g id="Grupo_150" data-name="Grupo 150" transform="translate(624.778 -138.988)">
    <path id="Caminho_281" data-name="Caminho 281" d="M-498.937,185.566a2.025,2.025,0,0,0,1.98,2.07,2.025,2.025,0,0,0,2.07-1.979c0-.03,0-.06,0-.091v-6.075h7.751a20.621,20.621,0,0,0,20.6-20.6v-9.776a2.025,2.025,0,0,0-2.027-2.024,2.026,2.026,0,0,0-1.43.592,11.723,11.723,0,0,1-8.345,3.457,20.58,20.58,0,0,0-16.548,8.347V141.016a2.025,2.025,0,0,0-2.07-1.98,2.025,2.025,0,0,0-1.98,1.98v10.368a20.581,20.581,0,0,0-16.548-8.347,11.724,11.724,0,0,1-8.345-3.457,2.025,2.025,0,0,0-2.864,0,2.025,2.025,0,0,0-.593,1.436v9.777a20.621,20.621,0,0,0,20.6,20.6h7.751Zm20.6-30.375a15.762,15.762,0,0,0,7.751-2.013v5.715a16.567,16.567,0,0,1-16.548,16.548h-3.7l11.34-8.5a2.025,2.025,0,0,0,.445-2.829,2.025,2.025,0,0,0-2.829-.445l-.046.034-12.959,9.722v-1.678A16.566,16.566,0,0,1-478.339,155.191Zm-44.894-4.4v-5.718a15.759,15.759,0,0,0,7.751,2.013,16.566,16.566,0,0,1,16.548,16.548v1.677L-511.9,155.6a2.025,2.025,0,0,0-2.841.365,2.025,2.025,0,0,0,.365,2.841l.046.034,11.34,8.5h-3.7a16.567,16.567,0,0,1-16.549-16.552Z" transform="translate(-76.027)" fill="#fc0"/>
    <path id="Caminho_284" data-name="Caminho 284" d="M-585.775,267.505c-.024-.007-8.566-1.341-12.529-5.3l-4.548-4.545a8.047,8.047,0,0,0-5.726-2.374v-16.2a8.1,8.1,0,0,0-8.1-8.1,8.1,8.1,0,0,0-8.1,8.1V266.59a26.327,26.327,0,0,0,14.551,23.545l9.749,4.873v10.9a2.025,2.025,0,0,0,2.025,2.025h0a2.015,2.015,0,0,0,2.015-2.015V293.757a2.025,2.025,0,0,0-1.119-1.812l-10.871-5.435a22.155,22.155,0,0,1-12.3-19.919V239.18a4.113,4.113,0,0,1,3.9-4.144,4.05,4.05,0,0,1,4.2,4.047v17.285a8.1,8.1,0,0,0-2.307,12.043,7.655,7.655,0,0,0,.625.7l10.368,10.368a2.025,2.025,0,0,0,2.864.048,2.025,2.025,0,0,0,.048-2.864l-.048-.048-10.368-10.368a4.049,4.049,0,0,1,0-5.727,4.049,4.049,0,0,1,1.512-.955,4.045,4.045,0,0,1,4.212.957l4.548,4.546c4.695,4.695,14.953,6.461,14.973,6.467a7.952,7.952,0,0,1,7.18,7.938v23.811h0V305.9a2.035,2.035,0,0,0,2.035,2.035h0a2.025,2.025,0,0,0,2.025-2.025V279.471A11.986,11.986,0,0,0-585.775,267.505Z" transform="translate(0 -71.743)" fill="#fc0"/>
    <path id="Caminho_285" data-name="Caminho 285" d="M-338.419,231.009a8.1,8.1,0,0,0-8.093,8.093v16.2a8.046,8.046,0,0,0-5.727,2.373l-4.548,4.546c-3.963,3.963-12.5,5.3-12.528,5.3a11.986,11.986,0,0,0-10.812,11.966v26.436a2.025,2.025,0,0,0,2.025,2.025h0a2.021,2.021,0,0,0,2.021-2.021V303.3h0V279.49a7.952,7.952,0,0,1,7.18-7.938c.02-.006,10.278-1.773,14.973-6.467l4.548-4.546a4.046,4.046,0,0,1,4.212-.957,4.05,4.05,0,0,1,2.465,5.169,4.053,4.053,0,0,1-.955,1.513l-10.368,10.368a2.025,2.025,0,0,0-.048,2.864,2.025,2.025,0,0,0,2.864.048l.048-.048,10.368-10.368a8.1,8.1,0,0,0,0-11.452,8.087,8.087,0,0,0-1.68-1.289V239.2a4.113,4.113,0,0,1,3.9-4.144,4.05,4.05,0,0,1,4.2,4.047l.008,27.507a22.155,22.155,0,0,1-12.312,19.923l-10.871,5.436a2.025,2.025,0,0,0-1.119,1.812V303.3h0v2.62a2.029,2.029,0,0,0,2.029,2.029h0a2.025,2.025,0,0,0,2.025-2.025v-10.9l9.749-4.873h0a26.327,26.327,0,0,0,14.551-23.545V239.1A8.1,8.1,0,0,0-338.419,231.009Z" transform="translate(-190.787 -71.761)" fill="#fc0"/>
  </g>
</svg>
