<svg xmlns="http://www.w3.org/2000/svg" width="37.241" height="37.24" viewBox="0 0 37.241 37.24">
  <g id="Item_Phone" data-name="Item Phone" transform="translate(-1 0)">
    <g id="Grupo_11" data-name="Grupo 11" transform="translate(1)">
      <g id="Grupo_10" data-name="Grupo 10">
        <path id="Caminho_16" data-name="Caminho 16" d="M37.76,27.339a6.793,6.793,0,0,0-.685-1.033,15.2,15.2,0,0,0-2.492-2.391c-.713-.564-1.471-1.1-2.228-1.6-.455-.3-.813-.518-1.026-.643-1.8-1.024-3.871-.888-4.941.836l-.187.22c-.2.237-.406.474-.6.693l-.084.094c-.322.361-.616.666-.605.658a1.984,1.984,0,0,1-3-.306L14.37,16.329a1.985,1.985,0,0,1-.305-3c-.008.011.3-.283.658-.6l.094-.084c.219-.194.456-.4.693-.6l.22-.187c1.725-1.07,1.861-3.142.846-4.924-.135-.23-.355-.588-.653-1.043-.5-.757-1.032-1.515-1.6-2.228a15.2,15.2,0,0,0-2.391-2.492A6.8,6.8,0,0,0,10.9.482a4.135,4.135,0,0,0-4.856.729L4.38,2.879C-1.148,8.407.375,15,6.982,21.6l4.828,4.829,4.83,4.828c6.607,6.607,13.2,8.13,18.725,2.6l1.666-1.667A4.13,4.13,0,0,0,37.76,27.339ZM34.838,30l-1.667,1.668c-4.045,4.045-8.79,2.947-14.339-2.6L14,24.24,9.175,19.411c-5.55-5.55-6.647-10.295-2.6-14.34L8.239,3.4a1.034,1.034,0,0,1,1.214-.181,3.767,3.767,0,0,1,.559.376,12.358,12.358,0,0,1,1.883,1.983c.5.633.985,1.318,1.434,2,.268.41.462.725.562.9.28.492.262.706.18.753l-.234.161-.337.284c-.251.213-.5.43-.737.638l-.1.091A7.343,7.343,0,0,0,11.5,11.59a5.02,5.02,0,0,0,.68,6.931l7.544,7.544a5.02,5.02,0,0,0,6.931.681,7.34,7.34,0,0,0,1.183-1.164l.091-.1c.208-.236.425-.487.638-.737.128-.15.227-.268.284-.337l.161-.234c.046-.082.261-.1.77.19.155.091.47.285.88.553.685.448,1.369.933,2,1.434a12.357,12.357,0,0,1,1.983,1.883,3.766,3.766,0,0,1,.376.559A1.03,1.03,0,0,1,34.838,30Z" transform="translate(-1 -0.001)" fill="#fff"/>
      </g>
    </g>
  </g>
</svg>
