<svg xmlns="http://www.w3.org/2000/svg" width="61.153" height="61.153" viewBox="0 0 61.153 61.153">
  <g id="layout-text-sidebar" transform="translate(22.576 22.576)">
    <path id="Caminho_107" data-name="Caminho 107" d="M53.509,3.822H7.644A3.822,3.822,0,0,0,3.822,7.644V53.509a3.822,3.822,0,0,0,3.822,3.822H53.509a3.822,3.822,0,0,0,3.822-3.822V7.644A3.822,3.822,0,0,0,53.509,3.822ZM7.644,0A7.644,7.644,0,0,0,0,7.644V53.509a7.644,7.644,0,0,0,7.644,7.644H53.509a7.644,7.644,0,0,0,7.644-7.644V7.644A7.644,7.644,0,0,0,53.509,0Z" transform="translate(-22.576 -22.576)" fill="#7c7c7b" fill-rule="evenodd"/>
    <path id="Caminho_108" data-name="Caminho 108" d="M34.347,55.858V1h3.918V55.858ZM3,10.8A1.959,1.959,0,0,1,4.959,8.837H24.551a1.959,1.959,0,0,1,0,3.918H4.959A1.959,1.959,0,0,1,3,10.8ZM3,22.551a1.959,1.959,0,0,1,1.959-1.959H24.551a1.959,1.959,0,0,1,0,3.918H4.959A1.959,1.959,0,0,1,3,22.551ZM3,34.307a1.959,1.959,0,0,1,1.959-1.959H24.551a1.959,1.959,0,0,1,0,3.918H4.959A1.959,1.959,0,0,1,3,34.307ZM3,46.062A1.959,1.959,0,0,1,4.959,44.1H24.551a1.959,1.959,0,0,1,0,3.918H4.959A1.959,1.959,0,0,1,3,46.062Z" transform="translate(-13.133 -20.429)" fill="#7c7c7b" fill-rule="evenodd"/>
  </g>
</svg>
