<svg xmlns="http://www.w3.org/2000/svg" width="147.847" height="94.608" viewBox="0 0 147.847 94.608">
  <g id="Grupo_43" data-name="Grupo 43" transform="translate(-530 -377)">
    <g id="Grupo_40" data-name="Grupo 40" transform="translate(530 377)">
      <g id="Grupo_35" data-name="Grupo 35" transform="translate(41.666 0)">
        <g id="Grupo_34" data-name="Grupo 34">
          <path id="Caminho_172" data-name="Caminho 172" d="M202.022,145.482l-12.585-5.593a2.466,2.466,0,0,1-1.463-2.252v-3.456a18.341,18.341,0,0,0,6.945-14.368v-4.865a4.488,4.488,0,0,0,2.315-3.922v-.472a18.39,18.39,0,0,0-18.369-18.369h-4.629a18.39,18.39,0,0,0-18.369,18.369v4.284a4.542,4.542,0,0,0,1.728,3.639,4.225,4.225,0,0,0,.586.38v.956a18.34,18.34,0,0,0,6.944,14.368v3.456a2.466,2.466,0,0,1-1.463,2.251l-12.585,5.593a11.435,11.435,0,0,0-6.785,10.44v28.7a2.166,2.166,0,1,0,4.331,0v-28.7a7.087,7.087,0,0,1,.044-.745l5.8,5.8a4.748,4.748,0,0,1,1.4,3.379v20.271a2.166,2.166,0,0,0,4.331,0V164.355a9.05,9.05,0,0,0-2.668-6.442L150.616,151a7.075,7.075,0,0,1,2.22-1.56l12.373-5.5,9.176,9.176v31.51a2.166,2.166,0,0,0,4.331,0V153.116l9.176-9.176,12.372,5.5a7.071,7.071,0,0,1,2.22,1.56l-6.913,6.913a9.05,9.05,0,0,0-2.668,6.442v20.271a2.166,2.166,0,0,0,4.331,0V164.355a4.748,4.748,0,0,1,1.4-3.379l5.8-5.8a7.072,7.072,0,0,1,.044.744v28.7a2.166,2.166,0,0,0,4.331,0v-28.7A11.437,11.437,0,0,0,202.022,145.482Zm-25.473,3.675-8.051-8.051a6.783,6.783,0,0,0,.958-3.468v-.881a18.354,18.354,0,0,0,14.186,0v.881a6.782,6.782,0,0,0,.958,3.469Zm0-15.307a14.053,14.053,0,0,1-14.038-14.037v-.974c3.147-1.4,7.015-5,8.278-6.162a2.166,2.166,0,0,0-2.938-3.183c-1.083,1-5.538,5.182-7.561,5.529a.35.35,0,0,1-.057.011.44.44,0,0,1-.037-.2v-4.284a14.054,14.054,0,0,1,14.038-14.038h4.629A14.054,14.054,0,0,1,192.9,110.553v.472a.139.139,0,0,1-.1.142c-12.969,2.561-19.473-2.266-21.668-4.461a2.166,2.166,0,1,0-3.063,3.063c6.725,6.725,16.539,6.847,22.514,6.129v3.914A14.054,14.054,0,0,1,176.55,133.85Z" transform="translate(-144.292 -92.184)" fill="#fc0"/>
        </g>
      </g>
      <g id="Grupo_37" data-name="Grupo 37" transform="translate(0 11.574)">
        <g id="Grupo_36" data-name="Grupo 36">
          <path id="Caminho_173" data-name="Caminho 173" d="M39.053,162.209v-4.63a16.051,16.051,0,0,0-7.36-13.486,9.11,9.11,0,1,0-17.389,0,16.05,16.05,0,0,0-7.36,13.485v4.629a16.046,16.046,0,0,0,6.944,13.209v4.763a2.451,2.451,0,0,1-1.362,2.2l-7.491,3.745A9.061,9.061,0,0,0,0,194.277v18.856a2.166,2.166,0,0,0,4.331,0V195.214l3.528,3.528a4.748,4.748,0,0,1,1.4,3.379v11.012a2.166,2.166,0,0,0,4.331,0V202.121a9.051,9.051,0,0,0-2.668-6.442l-4.91-4.91c-.024-.024-.049-.044-.073-.066a4.829,4.829,0,0,1,1.034-.7l7.491-3.745a6.9,6.9,0,0,0,1.074-.671l5.3,5.3v22.251a2.166,2.166,0,1,0,4.331,0V190.883l5.3-5.3a6.867,6.867,0,0,0,1.074.671l11.148,5.826a2.166,2.166,0,1,0,1.937-3.874l-11.148-5.826a2.45,2.45,0,0,1-1.362-2.2v-4.763A16.046,16.046,0,0,0,39.053,162.209ZM23,136.6a4.784,4.784,0,0,1,4.778,4.778,4.854,4.854,0,0,1-.076.853,16.053,16.053,0,0,0-9.4,0A4.749,4.749,0,0,1,23,136.6Zm0,9.259a11.736,11.736,0,0,1,11.723,11.723v.785a13.6,13.6,0,0,1-14.62-4.4,2.166,2.166,0,0,0-3.264-.232,14.168,14.168,0,0,1-5.554,3.546A11.734,11.734,0,0,1,23,145.856Zm0,41.067-5-5a6.858,6.858,0,0,0,.226-1.738v-2.644a16.084,16.084,0,0,0,9.557,0v2.644A6.856,6.856,0,0,0,28,181.918Zm0-12.992a11.736,11.736,0,0,1-11.723-11.723v-.449a17.365,17.365,0,0,0,6.959-3.467,19.54,19.54,0,0,0,4.016,2.924,17.226,17.226,0,0,0,8.277,2.136,18.146,18.146,0,0,0,4.175-.5A11.737,11.737,0,0,1,23,173.931Z" transform="translate(0 -132.265)" fill="#fc0"/>
        </g>
      </g>
      <g id="Grupo_39" data-name="Grupo 39" transform="translate(103.774 16.204)">
        <g id="Grupo_38" data-name="Grupo 38">
          <path id="Caminho_174" data-name="Caminho 174" d="M398.409,192.9l-12.12-6.06a2.45,2.45,0,0,1-1.362-2.2V181.57a13.707,13.707,0,0,0,4.629-10.273v-2.465h.149a2.166,2.166,0,0,0,2.166-2.166v-4.629a13.755,13.755,0,0,0-13.74-13.74H373.5a13.755,13.755,0,0,0-13.74,13.74v4.629a2.166,2.166,0,0,0,2.166,2.166c.018,0,.07,0,.149,0V171.3a13.708,13.708,0,0,0,4.63,10.273v3.069c.2,2.391-5.3,5.253-6.138,5.673a2.166,2.166,0,1,0,1.937,3.874c.384-.192,5.517-3.888,5.85-4.14l5.3,5.3v29.2a2.166,2.166,0,1,0,4.331,0v-29.2l5.3-5.3a6.867,6.867,0,0,0,1.074.671l11.728,5.864-3.557,3.557a9.051,9.051,0,0,0-2.668,6.442v17.957a2.166,2.166,0,1,0,4.331,0V206.58a4.748,4.748,0,0,1,1.4-3.379l3.37-3.37a4.827,4.827,0,0,1,.158,1.22v23.486a2.166,2.166,0,0,0,4.331,0V201.051A9.06,9.06,0,0,0,398.409,192.9Zm-34.316-28.847v-2.018h0a9.419,9.419,0,0,1,9.408-9.408h4.629a9.419,9.419,0,0,1,9.408,9.408v2.406c-9.415-.508-15.1-4.172-15.151-4.208a2.166,2.166,0,0,0-2.733.271A14.185,14.185,0,0,1,364.094,164.056Zm11.723,27.326-5-5a6.858,6.858,0,0,0,.226-1.738v-.461a13.728,13.728,0,0,0,9.557,0v.461a6.844,6.844,0,0,0,.226,1.738Zm0-10.677a9.419,9.419,0,0,1-9.408-9.408v-3.491h0a18.327,18.327,0,0,0,5.083-3.1,38.476,38.476,0,0,0,13.734,3.9V171.3A9.419,9.419,0,0,1,375.817,180.7Z" transform="translate(-359.371 -148.298)" fill="#fc0"/>
        </g>
      </g>
    </g>
  </g>
</svg>
