<svg xmlns="http://www.w3.org/2000/svg" width="658.327" height="677.607" viewBox="0 0 658.327 677.607">
  <g id="Grupo_62" data-name="Grupo 62" transform="translate(1.205 1)">
    <path id="Caminho_181" data-name="Caminho 181" d="M443.123,29.915l-7.719,8.29.908,2.763-7.265,8.29L424.96,63.537l-8.628,6.909-7.265.46-6.811,3.685-9.99-2.3-5.279-7.208,1.834,13,15.133,5.533,4.127,6.916,5.044,3.227,1.376,11.988,10.088,4.611.459,5.994,2.751,2.305,1.834,7.838,3.5-1.693,9.082-13.357,8.173-5.066,4.995-8.29,9.536-11.514,3.633-12.435-8.173-1.382h0l-7.719-17.5-1.816-16.581-2.724,4.145-1.362-8.29-3.633-4.606Z" transform="translate(-66.007 -18.846)" fill="#b9b9b9" stroke="#3a3a3a" stroke-miterlimit="10" stroke-width="2" fill-rule="evenodd"/>
    <path id="Caminho_182" data-name="Caminho 182" d="M460.087,63.477l-.528,6.325,3.17-.487-2.641-5.839Z" transform="translate(-63.355 -17.619)" fill="#b9b9b9" stroke="#3a3a3a" stroke-miterlimit="10" stroke-width="2" fill-rule="evenodd"/>
    <path id="Caminho_183" data-name="Caminho 183" d="M389.422,64.86l-5.961-1.383-6.879,1.844L372,63.937l1.375,5.533-2.293,3.689-9.63-.461L358.24,75l-5.5.46-5.962-4.149L345.4,75l-8.712,3.227-3.21-.461-4.586,1.845.917,3.227-2.751,1.845-6.692-.542.64,12.137,3.748,18.157,7.494,4.952,3.33,11.142,17.159.72,4.585,5.072,9.066,2.048-7.231,8.557-30.723,65.009,5.961,20.748,8.712,19.365,12.071,12.317,114.352,1.423,14.634-24.385-.357-3.227,1.913-13.332-2.752-5.072,10.833-3.829,3.926-16.137-2.5-4.662-3.089-.268.917-6.916,11.006-3.688,14.215-17.981-1.835-11.066,13.3-13.832,5.962-17.981c-.953-.767,5.107-4.292-.723-2.915l-3.715-3.223-3.3.771-5.566-2.933L511.4,111.427l-8.713,1.383-6.419,6.916v5.533l1.376,1.383-3.668.923-2.293-1.383-12.84,17.52,2.751-11.988L454.08,133.1l36.226-8.3,5.961-17.981-8.713-2.767-22.469,2.305-5.044,14.754-4.586-1.844-20.636,10.6L432.527,143.7l-2.293-8.3,2.751-7.377-16.049,4.611,15.133-7.377-1.835-7.838-2.751-2.305-.459-5.993-10.088-4.611L415.56,92.523,410.516,89.3l-4.127-6.917-15.133-5.532L389.422,64.86Z" transform="translate(-68.443 -17.619)" fill="#b9b9b9" stroke="#3a3a3a" stroke-miterlimit="10" stroke-width="2" fill-rule="evenodd"/>
    <path id="Caminho_184" data-name="Caminho 184" d="M448.566,107.717l-7.924,2.774-3.679,7.213.566,1.942-3.962,3.884,9.056-2.219h0l6.792-5.271-.849-8.323Z" transform="translate(-64.305 -16.002)" fill="#b9b9b9" stroke="#3a3a3a" stroke-miterlimit="10" stroke-width="2" fill-rule="evenodd"/>
    <path id="Caminho_185" data-name="Caminho 185" d="M460.087,87.885l-.528,4.744,3.17-.365-2.641-4.379Z" transform="translate(-63.355 -16.727)" fill="#b9b9b9" stroke="#3a3a3a" stroke-miterlimit="10" stroke-width="2" fill-rule="evenodd"/>
    <path id="Caminho_186" data-name="Caminho 186" d="M473.767,98.027l-6.037,2.174-1.811-.988h-4.83l1.509-2.174,11.169.988Z" transform="translate(-63.299 -16.392)" fill="#b9b9b9" stroke="#3a3a3a" stroke-miterlimit="10" stroke-width="2" fill-rule="evenodd"/>
    <path id="Caminho_187" data-name="Caminho 187" d="M456.613,97.038l-1.219,6.325-1.951-1.65,3.17-4.675Z" transform="translate(-63.578 -16.392)" fill="#b9b9b9" stroke="#3a3a3a" stroke-miterlimit="10" stroke-width="2" fill-rule="evenodd"/>
    <path id="Caminho_188" data-name="Caminho 188" d="M323.6,85.761,317.838,83.3l-9.062-9.855.412-9.034-7-1.232,1.648-6.981,3.3-6.981-1.236-8.624,5.767-3.7-6.179-5.338h-2.06l-1.648-2.875.412-9.445h-7v7.8l-11.122,2.875L281.59,33.2,271.7,36.483l-7.414.411-9.474,5.749-7.826-.411-4.943-.411-10.3-6.159,8.65,9.855-3.3,6.16,1.648,9.855,7.826.411,5.767,3.285-.824,4.517,4.751,3.361L261.792,86.9l5.5,22.857.291,4.751,11.534,10.677,2.059-9.034,7-5.749,3.3,4.928,9.474-.411-1.236-8.213,7-2.875,1.291-7.582L324.245,97.9l-.64-12.137Z" transform="translate(-71.682 -19.236)" fill="#b9b9b9" stroke="#3a3a3a" stroke-miterlimit="10" stroke-width="2" fill-rule="evenodd"/>
    <path id="Caminho_189" data-name="Caminho 189" d="M253.957,67.964,244.852,72.6l-1.665,5.777-4.58,3.714-3.747-2.476-2.914,3.714-10.409,2.063-5.829,5.777-5.829-.825L205.715,92.4l-9.16-7.428-3.747,1.651-3.747-2.889-1.249-7.428-2.082-4.127-3.747,4.539-4.58,1.651-4.164-7.428L171.574,75.9l-20.4.413L149.091,79.2l4.58,2.063,5.413,1.238,1.665,5.364-2.914,7.015-3.747.825-5.829-2.889-3.331,3.714,2.914,12.38,4.164,4.126v5.777l5,6.6L147.842,177l-2.5,2.063-4.164-2.476-11.242-.413-4.58,2.889-12.49,2.476-14.156,7.84-6.662,15.268.833,4.126-11.242,8.253-1.507,7.58,27.7,6.7,29.595,6.764L202.8,264.893l22.9.825,2.082-2.888,5.413-2.063-1.249-7.84,15.405-6.6-.416-7.84,9.576-6.6h9.576l3.747,8.666,17.487,5.365,2.976,2.9,47.4-2.074,3.335-5.823-1.668-6.239,3.473-3.335-5.621-19.564,30.724-65.009,7.231-8.557L366.1,136.16l-4.586-5.072-17.159-.721-3.331-11.142-7.494-4.952-3.747-18.157L313.55,94.466l-1.291,7.582-7,2.875,1.236,8.213-9.474.411-3.3-4.928-7,5.749L284.66,123.4l-11.534-10.677-.291-4.751-5.5-22.857-5.521-13.792Z" transform="translate(-77.224 -17.455)" fill="#b9b9b9" stroke="#3a3a3a" stroke-miterlimit="10" stroke-width="2" fill-rule="evenodd"/>
    <path id="Caminho_190" data-name="Caminho 190" d="M80.238,219.081l-2.912,4.59,6.239,8.763,10.4,11.684v7.511L92.3,255.8l10.4.835,7.9,7.928,10.4-2.5,3.328-4.173,5.407-9.18,4.992,1.669V253.3l-1.664,3.338,2.912,6.259,1.248,9.18,2.08,2.5,7.071-4.59,14.142.834,11.647,8.346,3.328-8.346,5.823-2.5,14.142-2.087,7.447-6.865-64.016-26.1L80.238,219.081Z" transform="translate(-77.326 -11.931)" fill="#b9b9b9" stroke="#3a3a3a" stroke-miterlimit="10" stroke-width="2" fill-rule="evenodd"/>
    <path id="Caminho_191" data-name="Caminho 191" d="M241.819,232.7l.416,7.84-15.405,6.6,1.249,7.84-5.413,2.063-2.606,7.739.359,13.165,5.85,13.3,7.521,3.326,2.925,4.989,12.117-.416,4.178,3.742,4.178-1.247,8.774,9.147,5.431-.832,4.178,5.821,15.877,2.079,8.617,4.2L303.4,317.9l-1.924-9.183,7.343-2.463-1.251-2.912,3.335-4.991-5-6.655.417-5.908V281.3l-8.754-4.159-7.5,2.08-2.084-4.159-6.67-1.248,2.5-19.133-2.084-8.319,3.459-3.333-2.976-2.9-17.487-5.365-3.747-8.666h-9.576Z" transform="translate(-72.109 -11.675)" fill="#b9b9b9" stroke="#3a3a3a" stroke-miterlimit="10" stroke-width="2" fill-rule="evenodd"/>
    <path id="Caminho_192" data-name="Caminho 192" d="M471.037,259.866,369.19,258.443H356.684l-12.506-12.894-8.617-19.972-3.473,3.335,1.668,6.239-3.335,5.823L282.9,243.053l-3.336,3.327,2.085,8.319-2.5,19.133,6.67,1.248,2.085,4.159,7.5-2.079,8.755,4.16v5.823l-.418,4.574,5,6.656-3.336,4.991,1.251,2.912-7.344,2.463,1.924,9.183-3.335,4.16,3.335,10.814-.417,16.221-2.085,1.664,4.586,12.062,12.507,3.743,9.17-2.079,10.423,3.327v5.407l1.25,13.31,7.5,2.912,5,11.23,10-14.557,3.335,2.079,8.918-4.916,10.189,5.239,6.053,3.114,7.914-5.012,5.414,2.923,7.786-4.675,3.46.5.417,7.517,5.123,4.656,2.154-1.579-2.088-6.271,2.923-12.543v-4.18l9.188-1.254.917-6.809,7.087-6.239,8.755.416-1.668-10.4,5.419-3.327,2.5,1.664,4.586-9.566v-4.992l2.5-4.991V322.5l3.336-4.991V312.93l2.085-6.239-2.5-7.07,1.668-6.239-2.5-2.912-.04-5.861,7.961-13.689Z" transform="translate(-69.949 -11.694)" fill="#b9b9b9" stroke="#3a3a3a" stroke-miterlimit="10" stroke-width="2" fill-rule="evenodd"/>
    <path id="Caminho_193" data-name="Caminho 193" d="M348.073,393.6l-10.412,26.308,4.165,7.1-4.581,5.011,5.831,9.187.417,2.506-4.165,16.7,1.666,2.923h26.655L371.4,464.6l3.748-1.67,4.165,4.593,4.165,26.308,3.749,1.253,7.08-4.176,10.9,6.7,2.334-4.672,6.339-11.21,24.156-22.968,13.328-22.968,5.831-6.681,1.327-10.03-10.21-2.311-4.594-6.69-4.594,1.254-8.352-4.181-7.935-2.091-2.506-6.272-3.953-1.418L415.669,392l-5.123-4.656-.417-7.517-3.332-.418L398.885,384l-5.414-2.923-7.913,5.011-16.243-8.352-8.746,4.593-3.506-1.757L348.073,393.6Z" transform="translate(-67.826 -6.132)" fill="#b9b9b9" stroke="#3a3a3a" stroke-miterlimit="10" stroke-width="2" fill-rule="evenodd"/>
    <path id="Caminho_194" data-name="Caminho 194" d="M403.026,494.2l-6.153,26.279,8.614,2.874,3.729,13.387,7.493,3.346,4.579-2.51L424.2,540.5l23.729,5.856,1.665-7.947,10.824-7.529,13.321,4.6,6.661-4.6,10.407,5.019,2.057-.713v-5.719l-1.238-2.423,3.692-4.106-4.512-2.053,3.692-2.874,2.461-.411,2.051,4.927,2.461-4.517-.41-6.98-4.512,1.232-6.153-3.7-2.871-8.212H477.68l-4.451-8.387,1.579-12.144-5.333-4.106-10.665,3.285-10.546-5.656H438.7l-1.248-2.483-17.837-.074-7.911,7.522L403.026,494.2Z" transform="translate(-65.646 -2.73)" fill="#b9b9b9" stroke="#3a3a3a" stroke-miterlimit="10" stroke-width="2" fill-rule="evenodd"/>
    <path id="Caminho_195" data-name="Caminho 195" d="M408.824,534.62l2.081,10.875-3.33,6.692H428.39l7.909,4.183,15.4,5.856,8.742,15.476,10.854-2.441,1.255,3.727-6.695,11.182,4.6,3.313,16.21-15.363h2.082v-5.856l3.746.418.416-10.039.416-7.529,4.579-5.019L493.331,548l-2.914-14.221-10.407-5.019-6.661,4.6-13.321-4.6L449.2,536.293l-1.665,7.947-23.729-5.856-2.914-2.928-4.579,2.51-7.493-3.346Z" transform="translate(-65.255 -0.612)" fill="#b9b9b9" stroke="#3a3a3a" stroke-miterlimit="10" stroke-width="2" fill-rule="evenodd"/>
    <path id="Caminho_196" data-name="Caminho 196" d="M409.755,551.362l-24.567,11.064-12.553,9.939-10.461,19.051-14.227,12.839,9.624,2.485,4.184,5.8,5.44-.828,6.276,10.354,3.766-3.727,3.348.414,22.6,20.707,5.021.828,10.461,14.5,6.276-2.485,5.021-7.869-2.929,13.667-2.929-.828-7.532,4.141v12.01l3.766-4.97,2.092-4.97,3.766-4.142,1.255,4.142,7.95-19.051-.419-5.8,4.184-7.455,4.6-.828,2.511-6.626,4.6-5.384-2.929-4.97,5.44,2.485,7.95-2.485-2.511,5.384-5.44,8.7-.418,3.727-6.277,2.071-8.369,7.041v4.556l22.177-19.465,12.134-32.718-4.6-3.313,6.695-11.182-1.255-3.727L462.6,576.92l-8.716-15.52-15.4-5.856-7.909-4.183Z" transform="translate(-67.434 0.214)" fill="#b9b9b9" stroke="#3a3a3a" stroke-miterlimit="10" stroke-width="2" fill-rule="evenodd"/>
    <path id="Caminho_197" data-name="Caminho 197" d="M500.259,512.651l.409,2.279,20.855-18.859,7.489-1.655h0l9.569-2.9h7.073l8.321-8.276c-.235-1.241.84-2.483-.707-3.724l4.452-9.931-1.864-5.88-18,.419-.52,5.876-14.562,2.9.417-9.1.831-7.449-.831-7.862-9.57-4.965-.873-6.753-6.218-5.388-17.041,2.21-13.73-1.242-6.658-5.793-14.887.763L448.381,434l-13.328,22.968-16.245,15.446,17.837.074,1.249,2.483h9.569l10.546,5.655,10.665-3.285,5.332,4.107-1.579,12.143,4.45,8.387h9.845l3.179,8.58,5.845,3.328,2.351-.642Z" transform="translate(-64.844 -4.348)" fill="#b9b9b9" stroke="#3a3a3a" stroke-miterlimit="10" stroke-width="2" fill-rule="evenodd"/>
    <path id="Caminho_198" data-name="Caminho 198" d="M552.981,482.741l5.592-.569-5.794-4.833,2.9-2.819,3.725,1.612h11.588l8.691-4.833v5.639l21.936-.805-2.484-9.667,14.071-6.445V446.647l-9.949-.447-5.881-5.918-6.519,2.819,3.376,3.524-4.146,1.657,1.659,7.875-4.145,3.316-4.974-2.487-26.946,7.46-4.56-1.243,1.864,5.88-4.452,9.931h0a4.247,4.247,0,0,1,.749,2.567l-.042,1.158Z" transform="translate(-60.103 -3.846)" fill="#b9b9b9" stroke="#3a3a3a" stroke-miterlimit="10" stroke-width="2" fill-rule="evenodd"/>
    <path id="Caminho_199" data-name="Caminho 199" d="M613.291,448.5l10.336-9.18,1.723-13.353,9.905-12.519.661-15.549-10.8-6.255-8.382-3.232,1.292,7.511-7.752-.417-.357,7.422-5.389,2.487,8.33,8.452-1.292,6.677-3.722,1.036-3.6,9.4h-8.183l-.431,11.684,5.6,5.425,12.058.417Z" transform="translate(-58.381 -5.742)" fill="#b9b9b9" stroke="#3a3a3a" stroke-miterlimit="10" stroke-width="2" fill-rule="evenodd"/>
    <path id="Caminho_200" data-name="Caminho 200" d="M630.333,393.766l-.415-5.838-3.322-1.251v-4.17l2.659-7.678,1.895-5.471,2.09-6.034-4.568-7.923-9.967-2.5-4.983,1.251L600.433,342.89l-6.229,2.085-5.6-4.583-4.146-1.658-2.487-4.974h-6.218l-2.9,3.316-6.218-6.631-13.68,2.9-.415,3.73-12.022,5.8-9.017,2.93-.415-1.668,1.661-2.085-8.4-5.394-1.658,2.487,1.658,3.73-2.487,1.243-2.073-2.487-1.658,3.316,2.073,5.388-3.316.415,2.073,5.8L508.6,368.161l4.145,7.875-4.975,6.631,3.731,2.072.414,3.316-3.731,2.9.414,5.388-9.807,6.673-10.023-2.509-7.935,5.853-18.376,5.853L454.29,420.8l-1.327,10.03,14.887-.763,6.657,5.793,13.73,1.241,17.041-2.209,6.218,5.388.873,6.753L521.94,452l.832,7.862-1.248,16.552,14.846-2.975h0l.236-5.8,18-.419,4.56,1.243L586.116,461l4.975,2.487,4.146-3.316-1.658-7.875,4.145-1.658-3.375-3.524,6.519-2.82.413-11.2h8.183l3.6-9.4,3.722-1.036,1.292-6.677-8.33-8.452,5.389-2.487.357-7.422,7.752.417-1.292-7.511Z" transform="translate(-63.596 -7.861)" fill="#b9b9b9" stroke="#3a3a3a" stroke-miterlimit="10" stroke-width="2" fill-rule="evenodd"/>
    <path id="Caminho_201" data-name="Caminho 201" d="M534.208,343.188l2.076-11.259-4.568-3.336-2.076-5,2.907-7.923-1.661-4.17,4.153-1.251-1.246-3.336-2.821-.9-27.378,7.831-5.011-3.763-10.023,2.091-1.253-7.526-7.935-.836-5.011,7.944-8.927-12.269-4.834,4.51-2.084,6.239V314.8L455.18,319.8v4.991l-2.5,4.991v4.991l-4.586,9.566-2.5-1.664L440.172,346l1.667,10.4-8.754-.416-7.169,5.94-.835,7.108-9.188,1.254v4.181l-2.923,12.543,2.088,6.272-2.155,1.578.708,5.366,3.953,1.418,2.506,6.272L428,410l8.352,4.181,4.594-1.254,4.594,6.69,10.441,2.091,7.935-8.362,18.376-5.853,7.935-5.853,10.023,2.509,9.807-6.673-.414-5.388,3.731-2.9-.414-3.316-3.731-2.072,4.975-6.631-4.146-7.875,10.364-11.605-2.073-5.8,3.316-.415-2.073-5.388,1.658-3.316,2.073,2.487,2.487-1.243-1.658-3.73,1.658-2.487Z" transform="translate(-65.06 -8.992)" fill="#b9b9b9" stroke="#3a3a3a" stroke-miterlimit="10" stroke-width="2" fill-rule="evenodd"/>
    <path id="Caminho_202" data-name="Caminho 202" d="M622.847,251.563l-5.985-9.923-7.423-2.463-6.588,3.17-5.772,3.732-7.039,5.067-4.983,1.668-6.229-4.587-3.737,2.085-4.153-2.919-2.492,3.753L570.5,260.6,567,263.054l-2.689,6.819-5.646.818-5.108,3-9.41-1.637-6.184-4.909-4.571-.818-2.74,1.082-6.012,4.51.357,3.586-3.57,5.379,1.071,1.793,5.711,3.228.714,3.227-3.212,10.4,1.289,8.68,2.821.9,1.246,3.336-4.153,1.251,1.661,4.17-2.907,7.923,2.076,5,4.568,3.336-2.076,11.259-1.661,2.085.415,1.668,9.017-2.93,12.022-5.8.415-3.73,13.68-2.9,6.218,6.631,2.9-3.316h6.218l2.487,4.974,4.146,1.658,5.6,4.583,6.229-2.085,13.289,11.259,4.983-1.251,9.967,2.5,4.568,7.923-6.644,19.183v4.17l3.322,1.251.415,5.838,10.8,6.255h0l7.89-10.843-2.076-7.506,4.568-27.523-2.492-4.17,2.492-5.838-.83-11.26,2.076-12.51,2.076-12.511,1.661-5.421,4.153,5.421,18.5-26.436L669.07,281.5l-3.864-2.149.272-5.136,3.269-4.325-.219-3.735-6.59-1.4.545-4.055-8.9-9.14-4.153.834-2.492-3.753-11.212-6.672-5.4,6.672-4.95,1.942Z" transform="translate(-61.093 -11.197)" fill="#b9b9b9" stroke="#3a3a3a" stroke-miterlimit="10" stroke-width="2" fill-rule="evenodd"/>
    <path id="Caminho_203" data-name="Caminho 203" d="M534.188,269.164l-6.426-2.869v-4.3l-3.925-2.869.357-3.585-4.283-3.228-2.856-4.661-3.57-1.076,2.142-2.869,2.142-.717v-6.455l6.781,1.793V235.1l-2.856-2.151,3.57-6.1-3.927-.717-4.641,5.02-5-7.172-5.71-3.586-.358-16.495-5.71-16.854-9.638,3.585,2.5,4.662-3.926,16.137-10.833,3.829,2.624,5.494-1.785,12.91.357,3.227-14.634,24.385-1.071,11.476-7.853,13.268.04,5.861,2.307,2.686-1.474,6.465,2.5,7.07,4.833-4.51,4.623,6.354,4.3,5.915,5.012-7.944,7.935.837L487,316.277l10.022-2.091,5.012,3.763,27.378-7.831-1.289-8.68,3.212-10.4-.714-3.227-5.71-3.228-1.071-1.793,3.569-5.379-.357-3.586,7.139-4.661Z" transform="translate(-63.497 -13.102)" fill="#b9b9b9" stroke="#3a3a3a" stroke-miterlimit="10" stroke-width="2" fill-rule="evenodd"/>
    <path id="Caminho_204" data-name="Caminho 204" d="M536.033,263.105l-2.957-8.182,3.5-7.364.538-12.274,23.39-12.547,4.3-5.728,4.84-2.182,6.99,3.273,4.033-9.546-4.3-11.728,9.141-10.91-2.678-3.049-2.161-2.461-.591-5.564,6.506-10.2,12.1-10.365.962-8.531-7.717-.273-17.364-7.659-1.1,2.462-5.788-.821-3.583,3.829-4.134-.547,1.1,6.564h-4.134l-2.756-4.65,2.756-9.573-4.961,2.462,2.481-6.017-3.307-7.932-8.544,2.735-.827,3.009-2.205-3.009,1.378-3.556-9.1-4.376-1.909,2.071-.28.94-5.961,17.981-13.3,13.832,1.834,11.066L498.312,181.88,487,185.956l-.917,6.916,3.089.269,9.637-3.586L504,206.469l.88,16.434,5.711,3.586,4.985,6.785,4.652-4.633,3.926.717-3.569,6.1,2.856,2.152v3.228l-6.782-1.793V245.5l-2.142.717-2.142,2.869,3.57,1.076,2.855,4.662,4.283,3.227-.357,3.586,3.926,2.869v4.3l5.3,3.02,2.74-1.082Z" transform="translate(-62.385 -15.612)" fill="#b9b9b9" stroke="#3a3a3a" stroke-miterlimit="10" stroke-width="2" fill-rule="evenodd"/>
    <path id="Caminho_205" data-name="Caminho 205" d="M610.59,241.231l9.481-8.731-.738-13.182,2.42-6.546v-6l-4.571.818-1.882-15-2.42-3-4.571-15,2.957-7.092-1.076-7.91-4.287-4,2.405-8-10.33-2.8-.962,8.531-12.1,10.365-6.506,10.2.591,5.564,4.84,5.51-9.141,10.91,4.3,11.728-4.033,9.546-6.99-3.273-4.84,2.182-4.3,5.728-23.39,12.547-.538,12.274-3.5,7.364,2.957,8.182-1.344,7.637,4.571.818,6.184,4.909,9.41,1.637,5.108-3,5.646-.818,2.689-6.819,3.495-2.455-2.052-9.454,2.492-3.753,4.153,2.919,3.737-2.085,6.229,4.587,4.983-1.668,12.811-8.8,6.831-3.17Z" transform="translate(-60.728 -14.647)" fill="#b9b9b9" stroke="#3a3a3a" stroke-miterlimit="10" stroke-width="2" fill-rule="evenodd"/>
    <path id="Caminho_206" data-name="Caminho 206" d="M671.97,284.308l3.813-8.65,9.806-5.136,1.251-2.027-6.254-7.862-5.166.281-7.885-6.739-18.183-2.6,8.453,8.678-.545,4.055,6.265,1.081.545,4.055-3.269,4.325-.272,5.136,3.268,1.892,8.172,3.514Z" transform="translate(-56.417 -10.744)" fill="#b9b9b9" stroke="#3a3a3a" stroke-miterlimit="10" stroke-width="2" fill-rule="evenodd"/>
    <path id="Caminho_207" data-name="Caminho 207" d="M686.857,268.957l5.71-3.37-.272-3.931,8.973-7.3,6.526-11.793-6.254-3.65L695.014,242l-5.166-1.123-1.359,7.581-5.166-1.966-5.71,3.65-3.807-3.089-.816-3.65-2.719-1.123-2.719,2.527L665.1,240.6l-3.416,3.515-12.77,7.46.451.463,18.183,2.6,7.885,6.739,5.166-.281,6.254,7.862Z" transform="translate(-56.433 -11.206)" fill="#b9b9b9" stroke="#3a3a3a" stroke-miterlimit="10" stroke-width="2" fill-rule="evenodd"/>
    <path id="Caminho_208" data-name="Caminho 208" d="M709.35,243.566l4.755-17.334-.825-14.779-5.223,1.368-1.374,7.39-4.4-1.642-3.849,2.737,1.1,3.832-3.574-.274L693.21,222.4l-8.523,4.652-1.374,5.474-4.4-.547-1.924-3.558-3.849.821-1.375-4.1,3.574-3.01V218.3l2.474.547.825-3.831-5.107,1.926-3.519,1.345-7.581,1.077-5.786,5.5-5.5-4.653-8.248,4.106-9.622-9.032-4.4-1.1-4.674,2.738c-2.364.967-7.368-2.445-7.093,2.9l.22,10.236-11,10.126,7.423,2.463,5.985,9.923,7.475-2.919,5.4-6.672,7.423,4.418,3.79,2.255,2.491,3.753,4.154-.834,12.77-7.459,3.416-3.516,2.447,4.212,2.719-2.527,2.719,1.124.816,3.651,3.807,3.088,5.709-3.65,5.166,1.965,1.36-7.581,5.166,1.124,6.526-3.089Z" transform="translate(-57.99 -12.21)" fill="#b9b9b9" stroke="#3a3a3a" stroke-miterlimit="10" stroke-width="2" fill-rule="evenodd"/>
    <path id="Caminho_209" data-name="Caminho 209" d="M711.066,212.246l-2.707-9.959-5.4-.335-7.6-.472-4.152,1.293-3.158-1.831-6.227,2.691,2.657,3.73-3.208,3.77-4.328-6.2-4.671,1.67-2.363-1.355-2.654-1.665,3.5-4.05,4.57-.207.6-4.882-8.4-1.931-1.076,5.4-1.615-.27-5.383,5.4-2.537,5.435-10.83,1.077.812,2.961,2.978,1.615.812,4.845-1,1.928,5.5,4.653,5.786-5.5,7.581-1.076,3.52-1.346,1.808,1.358v3.832l-3.574,3.011,1.375,4.105,3.849-.821,1.924,3.558,4.4.547,1.375-5.474,8.522-4.653,2.749,2.463,3.574.274-1.1-3.832,3.849-2.737,4.4,1.642,1.374-7.39,4.463-1.267Z" transform="translate(-56.537 -12.902)" fill="#b9b9b9" stroke="#3a3a3a" stroke-miterlimit="10" stroke-width="2" fill-rule="evenodd"/>
    <path id="Caminho_210" data-name="Caminho 210" d="M705.576,191.755l-3.23-7.289-11.572-1.62h-4.306l-6.728-.81-.807-1.89-3.23,1.08-3.768-4.86-8.881,7.559-3.768,8.639-8.612,7.019.538,3.24,4.844-.81,3.229,1.62,5.383-5.4,1.615.27,1.076-5.4,8.4,1.931-.6,4.882-4.57.207-3.5,4.05,5.382,3.24,4.306-1.89,4.328,6.2,3.208-3.77,6.728-4.59,4.152-1.293,13,.807Z" transform="translate(-56.369 -13.493)" fill="#b9b9b9" stroke="#3a3a3a" stroke-miterlimit="10" stroke-width="2" fill-rule="evenodd"/>
    <path id="Caminho_211" data-name="Caminho 211" d="M666.825,176.231l-3.052-6.325-7.215-3.3-16.65-14.575h-4.44l-10.267-7.7-19.7,3.3-2.22,7.975,4.287,4,1.076,7.91-2.957,7.092,4.571,15,2.42,3,1.882,15,4.571-.818v6l-1.7,6.342,6.38.386,5.181-2.874,4.4,1.095,9.622,9.032,8.248-4.105,1.018-1.59-.834-5.183-2.978-1.615-.812-2.961,2.8-.16,8.03-.917,2.537-5.435-3.229-1.62-4.844.81-.55-3.839,8.624-6.421,3.768-8.639,8.881-7.559Z" transform="translate(-58.101 -14.664)" fill="#b9b9b9" stroke="#3a3a3a" stroke-miterlimit="10" stroke-width="2" fill-rule="evenodd"/>
  </g>
</svg>
