<svg xmlns="http://www.w3.org/2000/svg" width="278.243" height="267.945" viewBox="0 0 278.243 267.945">
  <g id="Logo" transform="translate(-34.102 0.45)">
    <g id="Camada_1" data-name="Camada 1" transform="translate(34.102 -0.45)">
      <path id="Caminho_62" data-name="Caminho 62" d="M205.779,16.28a185.8,185.8,0,0,0-19.12-8.38,120.128,120.128,0,0,0-85.688,0,185.8,185.8,0,0,0-19.158,8.38L78.87,17.869V93c0,.884,1.176,21.876,23.051,34.563,19.553,11.333,38.852,19.854,39.66,20.211l2.229.94,2.22-.94c.818-.357,20.108-8.878,39.66-20.211C207.566,114.881,208.714,93.889,208.751,93V17.869ZM138.29,134.085c-7.42-3.517-19.177-9.33-30.81-16.082a35.334,35.334,0,0,1-14.991-16.252,30,30,0,0,1-2.568-9.17V24.6c4.3-2.078,9.32-4.223,14.991-6.377a108.748,108.748,0,0,1,33.378-7.035ZM197.71,92.6a29.486,29.486,0,0,1-2.379,8.737A35.334,35.334,0,0,1,180.151,118c-11.624,6.743-23.381,12.565-30.81,16.082V11.192a108.8,108.8,0,0,1,33.387,7.035c5.643,2.154,10.684,4.3,14.982,6.377Z" transform="translate(-4.694 0)" fill="#fff"/>
      <path id="Caminho_63" data-name="Caminho 63" d="M118.011,67.31,99.06,86.3l8,8.013,27.1-26.889L107.289,40.45l-8.145,8.1Z" transform="translate(-5.895 -2.407)" fill="#fff"/>
      <path id="Caminho_64" data-name="Caminho 64" d="M186.489,40.3,159.61,67.32l26.823,26.964,8.079-8.079-18.819-18.96L194.53,48.4Z" transform="translate(-9.499 -2.399)" fill="#fff"/>
      <rect id="Retângulo_8" data-name="Retângulo 8" width="17.296" height="55.357" transform="translate(34.158 182.614)" fill="#fff"/>
      <path id="Caminho_65" data-name="Caminho 65" d="M166.936,184.345C157.278,175.27,144.449,174,134.65,174H0v13.552H134.744c9.508,0,24.5,2.445,24.5,23.2,0,5.05-.433,12.113-6.48,17.446-4.326,3.894-11.822,6.63-22.92,6.63h-25.76V192.97l-17.3,11.286V248.3h43.385c12.113,0,22.638-1.006,30.566-5.765,6.771-4.035,16.43-13.835,16.43-31.854C177.169,199.459,173.849,190.665,166.936,184.345Z" transform="translate(0 -10.355)" fill="#fff"/>
      <path id="Caminho_66" data-name="Caminho 66" d="M214.9,248.295H197.58V173.94H214.9Z" transform="translate(-11.759 -10.352)" fill="#fff"/>
      <path id="Caminho_67" data-name="Caminho 67" d="M236.128,208.964l49.3-35.024H260.346l-38,28.563v15.462l41.306,30.35h27.82Z" transform="translate(-13.233 -10.352)" fill="#fff"/>
      <path id="Caminho_68" data-name="Caminho 68" d="M13.827,277.586c0,2.9,1.345,3.922,3.4,3.922a5.333,5.333,0,0,0,3.339-1.147l.94,2.323a7.43,7.43,0,0,1-4.307,1.307c-3.546,0-6.1-1.881-6.1-6.442V276.7c0-4.6,2.558-6.452,6.1-6.452a7.524,7.524,0,0,1,4.307,1.3l-.94,2.314a6.282,6.282,0,0,0-3.32-1.025c-2.06,0-3.4,1.044-3.4,3.931Z" transform="translate(-0.661 -16.084)" fill="#fff"/>
      <path id="Caminho_69" data-name="Caminho 69" d="M25.39,276.742c0-4.637,2.314-6.452,5.5-6.452s5.492,1.815,5.492,6.452v.846c0,4.627-2.314,6.442-5.492,6.442s-5.5-1.815-5.5-6.442Zm8.276,0c0-2.962-1.119-3.9-2.774-3.9s-2.821.94-2.821,3.931v.846c0,2.981,1.11,3.922,2.821,3.922s2.774-.941,2.774-3.922Z" transform="translate(-1.511 -16.086)" fill="#fff"/>
      <path id="Caminho_70" data-name="Caminho 70" d="M45.988,278.6H43.919v5.135h-2.7V270.64h5.116c3.621,0,5.05,1.665,5.05,3.988a3.546,3.546,0,0,1-2.6,3.564l3.668,5.539h-3.1Zm-2.069-5.445v2.925h2.417c1.768,0,2.351-.668,2.351-1.448s-.583-1.477-2.351-1.477Z" transform="translate(-2.453 -16.107)" fill="#fff"/>
      <path id="Caminho_71" data-name="Caminho 71" d="M61.108,278.6H59.039v5.135h-2.7V270.64h5.116c3.621,0,5.05,1.665,5.05,3.988a3.546,3.546,0,0,1-2.6,3.564l3.668,5.539H64.485Zm-2.069-5.445v2.925h2.417c1.768,0,2.351-.668,2.351-1.448s-.583-1.477-2.351-1.477Z" transform="translate(-3.353 -16.107)" fill="#fff"/>
      <path id="Caminho_72" data-name="Caminho 72" d="M74.149,281.211h7.072v2.521H71.45V270.64h9.772v2.511H74.149v2.417h6.282v2.521H74.149Z" transform="translate(-4.252 -16.107)" fill="#fff"/>
      <path id="Caminho_73" data-name="Caminho 73" d="M84.43,270.64H95.716v2.511h-4.3v10.58h-2.69v-10.58h-4.3Z" transform="translate(-5.025 -16.107)" fill="#fff"/>
      <path id="Caminho_74" data-name="Caminho 74" d="M99.38,276.742c0-4.637,2.314-6.452,5.5-6.452s5.492,1.815,5.492,6.452v.846c0,4.627-2.314,6.442-5.492,6.442s-5.5-1.815-5.5-6.442Zm8.276,0c0-2.981-1.11-3.931-2.821-3.931s-2.821.94-2.821,3.931v.846c0,2.981,1.11,3.922,2.821,3.922s2.821-.94,2.821-3.922Z" transform="translate(-5.914 -16.086)" fill="#fff"/>
      <path id="Caminho_75" data-name="Caminho 75" d="M119.978,278.6h-2.069v5.135h-2.7V270.64h5.116c3.621,0,5.05,1.665,5.05,3.988a3.546,3.546,0,0,1-2.6,3.564l3.668,5.539h-3.1Zm-2.069-5.445v2.925h2.417c1.768,0,2.351-.668,2.351-1.448s-.583-1.477-2.351-1.477Z" transform="translate(-6.857 -16.107)" fill="#fff"/>
      <path id="Caminho_76" data-name="Caminho 76" d="M133.7,270.64h2.821l4.7,13.092h-2.765l-1.223-3.386H132.95l-1.232,3.386H129Zm.141,7.185H136.3l-1.223-3.386Z" transform="translate(-7.677 -16.107)" fill="#fff"/>
      <path id="Caminho_77" data-name="Caminho 77" d="M151.8,270.64h4.091c3.762,0,6.085,1.73,6.085,6.123v.846c0,4.392-2.361,6.123-6.085,6.123H151.8Zm7.477,6.123c0-2.746-1.147-3.612-3.386-3.612H154.5v8.06h1.392c2.238,0,3.386-.865,3.386-3.6Z" transform="translate(-9.034 -16.107)" fill="#fff"/>
      <path id="Caminho_78" data-name="Caminho 78" d="M169.449,281.211h7.072v2.521H166.75V270.64h9.772v2.511h-7.072v2.417h6.264v2.521h-6.264Z" transform="translate(-9.924 -16.107)" fill="#fff"/>
      <path id="Caminho_79" data-name="Caminho 79" d="M187.782,280.426a8.521,8.521,0,0,0,4.326,1.082c1.533,0,2.521-.461,2.521-1.288,0-1.006-.94-1.411-2.821-1.815-2.031-.517-4.7-1.448-4.7-4.383s2.483-3.762,4.975-3.762a9.706,9.706,0,0,1,5.116,1.3l-1.044,2.295a7.59,7.59,0,0,0-4.072-1.072c-1.185,0-2.257.3-2.257,1.213,0,1.147,1.636,1.383,2.5,1.665,3.339.941,4.994,2.041,4.994,4.533,0,3.282-3.066,3.762-5.239,3.762a10.957,10.957,0,0,1-5.38-1.307Z" transform="translate(-11.111 -16.084)" fill="#fff"/>
      <path id="Caminho_80" data-name="Caminho 80" d="M204.469,281.211h7.063v2.521H201.77V270.64h9.762v2.511h-7.063v2.417h6.264v2.521h-6.264Z" transform="translate(-12.008 -16.107)" fill="#fff"/>
      <path id="Caminho_81" data-name="Caminho 81" d="M220.251,276.253h5.643v6.471a7.468,7.468,0,0,1-4.279,1.307c-3.546,0-6.094-1.881-6.094-6.442v-.846c0-4.6,2.549-6.452,6.094-6.452a7.524,7.524,0,0,1,4.317,1.3l-.988,2.314a6.339,6.339,0,0,0-3.329-1.063c-2.05,0-3.4,1.044-3.4,3.931v.846c0,2.9,1.354,3.922,3.4,3.922a6.055,6.055,0,0,0,1.618-.216v-2.746h-2.981Z" transform="translate(-12.826 -16.086)" fill="#fff"/>
      <path id="Caminho_82" data-name="Caminho 82" d="M230.53,270.64h2.7v6.969c0,2.981,1.025,3.922,2.6,3.922s2.577-.94,2.577-3.922V270.64h2.7v6.969c0,4.627-2.238,6.442-5.276,6.442s-5.295-1.815-5.295-6.442Z" transform="translate(-13.72 -16.107)" fill="#fff"/>
      <path id="Caminho_83" data-name="Caminho 83" d="M250.868,278.6h-2.041v5.135H246.1V270.64h5.116c3.621,0,5.05,1.665,5.05,3.988a3.546,3.546,0,0,1-2.6,3.564l3.668,5.539h-3.1Zm-2.069-5.445v2.925h2.417c1.768,0,2.351-.668,2.351-1.448s-.583-1.477-2.351-1.477Z" transform="translate(-14.646 -16.107)" fill="#fff"/>
      <path id="Caminho_84" data-name="Caminho 84" d="M260.83,276.742c0-4.637,2.314-6.452,5.5-6.452s5.492,1.815,5.492,6.452v.846c0,4.627-2.314,6.442-5.492,6.442s-5.5-1.815-5.5-6.442Zm8.276,0c0-2.981-1.11-3.931-2.774-3.931s-2.821.94-2.821,3.931v.846c0,2.981,1.11,3.922,2.821,3.922s2.774-.94,2.774-3.922Z" transform="translate(-15.523 -16.086)" fill="#fff"/>
      <path id="Caminho_85" data-name="Caminho 85" d="M276.933,280.426a8.521,8.521,0,0,0,4.326,1.082c1.533,0,2.521-.461,2.521-1.288,0-1.006-.94-1.411-2.822-1.815-2.031-.517-4.7-1.448-4.7-4.383s2.483-3.762,4.975-3.762a9.706,9.706,0,0,1,5.116,1.3l-1.044,2.295a7.59,7.59,0,0,0-4.044-1.016c-1.185,0-2.257.3-2.257,1.213,0,1.147,1.636,1.382,2.5,1.665,3.339.94,4.994,2.041,4.994,4.533,0,3.282-3.066,3.762-5.238,3.762a10.957,10.957,0,0,1-5.38-1.307Z" transform="translate(-16.418 -16.084)" fill="#fff"/>
    </g>
  </g>
</svg>
