<svg xmlns="http://www.w3.org/2000/svg" width="37.373" height="35.522" viewBox="0 0 37.373 35.522">
  <g id="Item_House" data-name="Item House" transform="translate(0 -12.676)">
    <g id="Grupo_7" data-name="Grupo 7" transform="translate(0 12.676)">
      <path id="Caminho_10" data-name="Caminho 10" d="M36.745,28.457l-3.157-2.877V16.042a1.1,1.1,0,0,0-1.1-1.1h-7.6a1.1,1.1,0,0,0-1.1,1.1v.611l-3.813-3.474a1.908,1.908,0,0,0-2.582,0L.628,28.457A1.916,1.916,0,0,0,1.919,31.79H4.6V47.1a1.1,1.1,0,0,0,1.1,1.1h9.191a1.1,1.1,0,0,0,1.1-1.1V37.8h5.4V47.1a1.1,1.1,0,0,0,1.1,1.1h9.191a1.1,1.1,0,0,0,1.1-1.1V31.791h2.679a1.916,1.916,0,0,0,1.291-3.333Zm-5.068,1.135a1.1,1.1,0,0,0-1.1,1.1V46H23.586V36.7a1.1,1.1,0,0,0-1.1-1.1h-7.6a1.1,1.1,0,0,0-1.1,1.1V46H6.795V30.691a1.1,1.1,0,0,0-1.1-1.1H2.646L18.687,14.976l5.463,4.978a1.1,1.1,0,0,0,1.839-.812v-2h5.4v8.925a1.1,1.1,0,0,0,.359.812l2.978,2.714Z" transform="translate(0 -12.676)" fill="#fff"/>
    </g>
  </g>
</svg>
