<svg id="Ãcone" xmlns="http://www.w3.org/2000/svg" width="21.04" height="20.11" viewBox="0 0 21.04 20.11">
  <path id="Caminho_27" data-name="Caminho 27" d="M2.63,1.315H18.41A1.315,1.315,0,0,1,19.725,2.63V17.866l-2.63-2.63a2.63,2.63,0,0,0-1.859-.771H2.63A1.315,1.315,0,0,1,1.315,13.15V2.63A1.315,1.315,0,0,1,2.63,1.315ZM18.41,0a2.63,2.63,0,0,1,2.63,2.63V19.453a.658.658,0,0,1-1.123.464l-3.752-3.752a1.315,1.315,0,0,0-.93-.385H2.63A2.63,2.63,0,0,1,0,13.15V2.63A2.63,2.63,0,0,1,2.63,0Z" fill="#fff" fill-rule="evenodd"/>
  <path id="Caminho_28" data-name="Caminho 28" d="M3,3.658A.658.658,0,0,1,3.658,3H15.493a.658.658,0,0,1,0,1.315H3.658A.658.658,0,0,1,3,3.658ZM3,6.945a.658.658,0,0,1,.658-.658H15.493a.658.658,0,0,1,0,1.315H3.658A.658.658,0,0,1,3,6.945Zm0,3.288a.658.658,0,0,1,.658-.658h6.575a.658.658,0,1,1,0,1.315H3.658A.658.658,0,0,1,3,10.233Z" transform="translate(0.945 0.945)" fill="#fff" fill-rule="evenodd"/>
</svg>
