<svg xmlns="http://www.w3.org/2000/svg" width="27.488" height="27.488" viewBox="0 0 27.488 27.488">
  <g id="x-square" transform="translate(-3.999 -3.999)">
    <path id="Caminho_103" data-name="Caminho 103" d="M30.982,4.5a1.718,1.718,0,0,1,0,2.432L6.935,30.983A1.72,1.72,0,1,1,4.5,28.551L28.55,4.5a1.718,1.718,0,0,1,2.432,0Z" transform="translate(0)" fill="#fff" fill-rule="evenodd"/>
    <path id="Caminho_104" data-name="Caminho 104" d="M4.5,4.5a1.718,1.718,0,0,0,0,2.432L28.551,30.983a1.72,1.72,0,1,0,2.432-2.432L6.936,4.5A1.718,1.718,0,0,0,4.5,4.5Z" transform="translate(0)" fill="#fff" fill-rule="evenodd"/>
  </g>
</svg>
