<svg xmlns="http://www.w3.org/2000/svg" width="32.079" height="32.079" viewBox="0 0 32.079 32.079">
  <path id="Facebook_Icon" data-name="Facebook Icon" d="M27.758,0H4.325A4.323,4.323,0,0,0,0,4.323V27.756a4.323,4.323,0,0,0,4.323,4.323H15.882l.02-11.463H12.924a.7.7,0,0,1-.7-.7l-.014-3.7a.7.7,0,0,1,.7-.705h2.973v-3.57c0-4.143,2.531-6.4,6.227-6.4h3.033a.7.7,0,0,1,.7.7V9.364a.7.7,0,0,1-.7.7H23.281c-2.01,0-2.4.955-2.4,2.357v3.091H25.3a.7.7,0,0,1,.7.785L25.558,20a.7.7,0,0,1-.7.62H20.9l-.02,11.463h6.877a4.323,4.323,0,0,0,4.323-4.323V4.323A4.323,4.323,0,0,0,27.758,0Z" transform="translate(-0.002)" fill="#7c7c7b"/>
</svg>
