<svg xmlns="http://www.w3.org/2000/svg" width="20.96" height="21.491" viewBox="0 0 20.96 21.491" fill="#7c7c7b">
  <path id="Ãcone" d="M22.938,11.668c0-5.588-4.236-9.478-10.326-9.478C6.3,2.19,1.978,6.556,1.978,12.93c0,6.579,4.21,10.751,10.853,10.751a13.894,13.894,0,0,0,4.34-.631V21.427a12.309,12.309,0,0,1-4.313.618c-5.511,0-9.065-3.541-9.065-9.037,0-5.357,3.618-9.194,8.653-9.194,5.151,0,8.679,3.179,8.679,7.828,0,3.168-1.043,5.216-2.667,5.216A1.315,1.315,0,0,1,17,15.426V7.871H15.059V9.442h-.207a3.207,3.207,0,0,0-3.014-1.816c-2.637,0-4.479,2.189-4.479,5.317,0,3.272,1.8,5.474,4.481,5.474a3.3,3.3,0,0,0,3.219-2.047h.207A2.653,2.653,0,0,0,18.1,18.532c2.961,0,4.841-2.665,4.841-6.862ZM9.42,12.994c0-2.255,1.017-3.592,2.742-3.592,1.752,0,2.871,1.39,2.871,3.592S13.9,16.6,12.136,16.6C10.45,16.6,9.42,15.233,9.42,12.994Z" transform="translate(-1.978 -2.19)" fill="#7c7c7b" fill-rule="evenodd"/>
</svg>
