<svg xmlns="http://www.w3.org/2000/svg" width="37.373" height="33.25" viewBox="0 0 37.373 33.25">
  <path id="Item_Hearth" data-name="Item Hearth" d="M18.687,33.25a2.192,2.192,0,0,1-1.445-.543c-1.51-1.32-2.965-2.561-4.25-3.655l-.007-.006a79.033,79.033,0,0,1-9.279-8.709C1.178,17.286,0,14.392,0,11.232A11.681,11.681,0,0,1,2.965,3.254,10.05,10.05,0,0,1,10.44,0a9.4,9.4,0,0,1,5.872,2.027,12.014,12.014,0,0,1,2.374,2.479,12.015,12.015,0,0,1,2.374-2.479A9.4,9.4,0,0,1,26.933,0a10.05,10.05,0,0,1,7.476,3.254,11.681,11.681,0,0,1,2.965,7.978c0,3.161-1.178,6.054-3.706,9.105a79.025,79.025,0,0,1-9.278,8.709c-1.287,1.1-2.744,2.339-4.258,3.662a2.193,2.193,0,0,1-1.444.542ZM10.44,2.189A7.885,7.885,0,0,0,4.574,4.738a9.5,9.5,0,0,0-2.385,6.494c0,2.658.988,5.036,3.2,7.709a77.774,77.774,0,0,0,9.013,8.44l.007.006c1.289,1.1,2.75,2.344,4.271,3.674,1.53-1.332,2.994-2.58,4.285-3.68a77.793,77.793,0,0,0,9.012-8.439c2.215-2.673,3.2-5.05,3.2-7.709A9.5,9.5,0,0,0,32.8,4.738a7.884,7.884,0,0,0-5.866-2.549A7.261,7.261,0,0,0,22.4,3.759a10.623,10.623,0,0,0-2.526,2.923,1.382,1.382,0,0,1-2.374,0,10.613,10.613,0,0,0-2.526-2.923A7.261,7.261,0,0,0,10.44,2.189Zm0,0" transform="translate(0 0)" fill="#fff"/>
</svg>
