<svg xmlns="http://www.w3.org/2000/svg" width="38.421" height="52.534" viewBox="0 0 38.421 52.534">
  <g id="Item_Condomínio" data-name="Item Condomínio" transform="translate(-170.938 -406.771)">
    <g id="Grupo_9" data-name="Grupo 9" transform="translate(171.766 406.771)">
      <path id="Subtração_1" data-name="Subtração 1" d="M100.194-1251.463H63.612v-2.02h1.223v-27.278a1.011,1.011,0,0,1,1.01-1.01H76.958v-11.113a1,1,0,0,1,.559-.9l20.206-10.1a1.015,1.015,0,0,1,.452-.107,1.008,1.008,0,0,1,.531.151,1,1,0,0,1,.479.859v49.5h1.01a1.012,1.012,0,0,1,1.011,1.01A1.012,1.012,0,0,1,100.194-1251.463Zm-18.185-14.144H94.132a1.012,1.012,0,0,1,1.01,1.011v11.113h2.021v-47.868l-18.185,9.093v38.777H81V-1264.6a1.012,1.012,0,0,1,.3-.716,1.012,1.012,0,0,1,.716-.3Zm7.072,2.021v10.1h4.041v-10.1Zm-6.062,0v10.1h4.041v-10.1Zm-16.165-16.165v26.268h10.1v-26.268Zm7.072,25.257H68.876a1.012,1.012,0,0,1-1.011-1.01v-5.052a1.012,1.012,0,0,1,1.011-1.01h5.052a1.011,1.011,0,0,1,1.01,1.01v5.052a1.011,1.011,0,0,1-1.01,1.01Zm-4.041-5.051v3.031h3.03v-3.031Zm4.041-3.031H68.876a1.012,1.012,0,0,1-1.011-1.01v-5.051a1.012,1.012,0,0,1,1.011-1.011h5.052a1.012,1.012,0,0,1,1.01,1.011v5.051a1.011,1.011,0,0,1-1.01,1.011Zm-4.041-5.051v3.031h3.03v-3.031Zm24.247,0H82.011a1.011,1.011,0,0,1-1.01-1.01v-5.051a1.012,1.012,0,0,1,1.01-1.011H94.133a1.012,1.012,0,0,1,1.01,1.011v5.051a1.011,1.011,0,0,1-1.01,1.01Zm-11.113-5.052v3.031h10.1v-3.031Zm-9.093,2.02H68.876a1.012,1.012,0,0,1-1.011-1.01v-5.051a1.012,1.012,0,0,1,1.011-1.01h5.052a1.011,1.011,0,0,1,1.01,1.01v5.051a1.011,1.011,0,0,1-1.01,1.009Zm-4.041-5.051v3.031h3.03v-3.031Zm24.247,0H82.011a1.011,1.011,0,0,1-1.01-1.01v-5.051a1.011,1.011,0,0,1,1.01-1.01H94.133a1.011,1.011,0,0,1,1.01,1.01v5.051a1.011,1.011,0,0,1-1.01,1.009Zm-11.113-5.051v3.031h10.1v-3.031Zm11.113-3.031H82.011A1.011,1.011,0,0,1,81-1284.8v-5.051a1.011,1.011,0,0,1,1.01-1.01H94.133a1.011,1.011,0,0,1,1.01,1.01v5.051a1.011,1.011,0,0,1-1.01,1.011Zm-11.113-5.051v3.031h10.1v-3.031Z" transform="translate(-63.612 1303.997)" fill="#fff"/>
      <path id="Caminho_35" data-name="Caminho 35" d="M172.584,1835.23h-4.4" transform="translate(-168.01 -1783.738)" fill="none" stroke="#fff" stroke-linecap="round" stroke-width="2"/>
    </g>
  </g>
</svg>
