<svg xmlns="http://www.w3.org/2000/svg" width="37.36" height="37.358" viewBox="0 0 37.36 37.358">
  <g id="Item_Info" data-name="Item Info" transform="translate(0 -0.008)">
    <g id="Grupo_9" data-name="Grupo 9" transform="translate(0 0.008)">
      <g id="Grupo_8" data-name="Grupo 8" transform="translate(0 0)">
        <path id="Caminho_13" data-name="Caminho 13" d="M18.68.008A18.679,18.679,0,1,0,37.36,18.687,18.7,18.7,0,0,0,18.68.008Zm0,33.962A15.283,15.283,0,1,1,33.964,18.687,15.3,15.3,0,0,1,18.68,33.97Z" transform="translate(0 -0.008)" fill="#fff"/>
        <path id="Caminho_14" data-name="Caminho 14" d="M151.7,130.008a1.7,1.7,0,0,0-1.7,1.7v11.319a1.7,1.7,0,0,0,3.4,0V131.706A1.7,1.7,0,0,0,151.7,130.008Z" transform="translate(-133.018 -115.29)" fill="#fff"/>
        <path id="Caminho_15" data-name="Caminho 15" d="M151.7,70.011a1.7,1.7,0,1,0,1.2.5A1.713,1.713,0,0,0,151.7,70.011Z" transform="translate(-133.018 -62.086)" fill="#fff"/>
      </g>
    </g>
  </g>
</svg>
